<svg xmlns="http://www.w3.org/2000/svg" width="32.96" height="32.38" viewBox="0 0 32.96 32.38">
  <title>delete</title>
  <g>
    <path d="M16.22,32.38a21.81,21.81,0,0,1-7.11-1.21C4.38,29.56,1.58,26.36.32,21.11a19.54,19.54,0,0,1-.21-5.79c0-.71.09-1.38.09-2a.65.65,0,0,1,0-.19C.29,12.77,2.06,4,9,1.34A18.56,18.56,0,0,1,21.32.82,16.7,16.7,0,0,1,31,9.19a16.34,16.34,0,0,1,1.19,12.5C30.07,28.28,23.94,32.38,16.22,32.38ZM2.2,13.44c0,.61-.05,1.29-.1,2a18.44,18.44,0,0,0,.17,5.2c1.11,4.65,3.35,7.23,7.5,8.64a19.69,19.69,0,0,0,6.45,1.1c6.93,0,12.2-3.48,14.1-9.31a14.29,14.29,0,0,0-1.07-11,14.7,14.7,0,0,0-8.53-7.39,16.75,16.75,0,0,0-11,.48C4.15,5.36,2.39,12.57,2.2,13.44Z"/>
    <path d="M22.92,23.59h-.09c-1-.09-2.15-1.38-4.65-4.53-.81-1-1.65-2.07-2.07-2.47-.58-.58-1.12-1.18-1.7-1.82A16.94,16.94,0,0,0,10,10.81a1,1,0,0,1-.44-1.34A1,1,0,0,1,10.9,9a18.69,18.69,0,0,1,5,4.41c.55.6,1.07,1.19,1.59,1.71a31.39,31.39,0,0,1,2.26,2.66,26.53,26.53,0,0,0,3.37,3.81,1,1,0,0,1-.2,2Z"/>
    <path d="M10,23.39A1,1,0,0,1,9.18,23a1,1,0,0,1,.12-1.41,63.71,63.71,0,0,0,5.5-5.52,47.61,47.61,0,0,1,7.75-7.31,1,1,0,1,1,1.14,1.65,46.41,46.41,0,0,0-7.42,7,65,65,0,0,1-5.68,5.7A1,1,0,0,1,10,23.39Z"/>
  </g>
</svg>
