<svg xmlns="http://www.w3.org/2000/svg" width="31.887" height="41.324" viewBox="0 0 31.887 41.324"><defs><style>.a{fill:#ccc;}.b{fill:#fff;}</style></defs><path class="a" d="M322.32,0V22.306h-9.566V9.56H300V0Z" transform="translate(-290.434)"/><path class="b" d="M31.885,22.306l-9.566,9.56H0V9.56L9.566,0V22.306Z" transform="translate(0)"/><g transform="translate(0 33.08)"><path class="b" d="M401.539,1194.95a1.544,1.544,0,0,1-.459.855,2.219,2.219,0,0,1-1.57.684v-1.007a.969.969,0,0,0,.51-.207,1.043,1.043,0,0,0,.255-.325Z" transform="translate(-386.772 -1189.952)"/><path class="b" d="M633.652,1044.478h-1.237v-6.4h1.237Z" transform="translate(-612.25 -1038.081)"/><path class="b" d="M695.63,1088.792a1.95,1.95,0,0,0,.495-.108.371.371,0,0,0,.267-.352.416.416,0,0,0-.2-.4,1.292,1.292,0,0,0-.6-.111.789.789,0,0,0-.629.217.9.9,0,0,0-.176.434h-1.194a1.811,1.811,0,0,1,.349-1.02,2.035,2.035,0,0,1,1.692-.625,3.018,3.018,0,0,1,1.387.308,1.182,1.182,0,0,1,.606,1.163v2.17q0,.226.009.547a.686.686,0,0,0,.074.33.445.445,0,0,0,.182.143v.182h-1.346a1.385,1.385,0,0,1-.078-.269q-.022-.126-.035-.286a2.556,2.556,0,0,1-.594.474,1.8,1.8,0,0,1-.908.23,1.57,1.57,0,0,1-1.068-.366,1.3,1.3,0,0,1-.422-1.039,1.347,1.347,0,0,1,.678-1.263,3.036,3.036,0,0,1,1.093-.3Zm.757.577a1.345,1.345,0,0,1-.24.119,2.03,2.03,0,0,1-.332.084l-.282.052a1.841,1.841,0,0,0-.569.169.564.564,0,0,0-.292.525.548.548,0,0,0,.179.458.677.677,0,0,0,.434.141,1.3,1.3,0,0,0,.747-.234.993.993,0,0,0,.355-.855Z" transform="translate(-671.323 -1085.274)"/><path class="b" d="M859.326,1040.576a2.718,2.718,0,0,1,.531,1.736,3.039,3.039,0,0,1-.524,1.827,1.694,1.694,0,0,1-2.872,0v.6h-1.22v-6.387h1.238v2.273a1.8,1.8,0,0,1,.52-.5,1.551,1.551,0,0,1,.856-.217A1.77,1.77,0,0,1,859.326,1040.576Zm-1.034,2.881a1.75,1.75,0,0,0,.267-1.015,2.269,2.269,0,0,0-.131-.833.914.914,0,0,0-.919-.625.928.928,0,0,0-.932.612,2.276,2.276,0,0,0-.131.842,1.753,1.753,0,0,0,.271,1.007.932.932,0,0,0,.827.4.859.859,0,0,0,.749-.385Z" transform="translate(-827.973 -1038.343)"/><g transform="translate(0 1.508)"><path class="b" d="M1.585,1086.868a2.193,2.193,0,0,0,0,2.19.938.938,0,0,0,.6.362v1.05a2.1,2.1,0,0,1-1.575-.731,2.933,2.933,0,0,1,0-3.553,2.084,2.084,0,0,1,1.575-.742v1.058a.939.939,0,0,0-.6.365Z" transform="translate(-0.007 -1085.445)"/><path class="b" d="M86.228,1087.995a2.736,2.736,0,0,1-.6,1.78,2.09,2.09,0,0,1-1.557.73v-1.054a.927.927,0,0,0,.567-.359,2.207,2.207,0,0,0,0-2.19.929.929,0,0,0-.567-.357v-1.062a2.078,2.078,0,0,1,1.557.741A2.755,2.755,0,0,1,86.228,1087.995Z" transform="translate(-81.39 -1085.479)"/></g><g transform="translate(5.192 1.55)"><path class="b" d="M164.136,1091.053a2.394,2.394,0,0,0-.132.859,1.363,1.363,0,0,0,.443,1.159.972.972,0,0,0,.421.178v.982a1.35,1.35,0,0,1-.418-.21,1.828,1.828,0,0,1-.4-.456v2.464h-1.224v-6.592h1.185v.7a1.985,1.985,0,0,1,.428-.486,1.508,1.508,0,0,1,.431-.23v1.009A.918.918,0,0,0,164.136,1091.053Z" transform="translate(-162.824 -1089.335)"/><path class="b" d="M244.828,1089.011v.194a2.765,2.765,0,0,1-.565,1.806,1.838,1.838,0,0,1-1.457.655h-.022v-1.076a.872.872,0,0,0,.493-.36,2.09,2.09,0,0,0,.022-2.031.815.815,0,0,0-.515-.385V1086.7h.051a1.871,1.871,0,0,1,1.413.612A2.448,2.448,0,0,1,244.828,1089.011Z" transform="translate(-240.236 -1086.699)"/></g><g transform="translate(10.14 1.535)"><path class="b" d="M319.576,1087.608a1.284,1.284,0,0,0-.33.732h.819v.816h-.848a1.074,1.074,0,0,0,.849,1.141v1.022a2.556,2.556,0,0,1-1.372-.567,2.291,2.291,0,0,1-.722-1.894,2.56,2.56,0,0,1,.652-1.885,2.215,2.215,0,0,1,1.442-.646v1.031A.878.878,0,0,0,319.576,1087.608Z" transform="translate(-317.972 -1086.326)"/><path class="b" d="M401.605,1088.905v.1c0,.045,0,.091,0,.139h-2.093v-.816h.808a.978.978,0,0,0-.808-.979v-1.034a2.58,2.58,0,0,1,.857.212,1.928,1.928,0,0,1,.819.7,2.32,2.32,0,0,1,.377.978A4.988,4.988,0,0,1,401.605,1088.905Z" transform="translate(-396.913 -1086.32)"/></g><g transform="translate(15.188 1.539)"><path class="b" d="M478.189,1090.253v.929a.819.819,0,0,0-.525.488,1.846,1.846,0,0,0-.121.72v2.561h-1.234v-4.721h1.2v.689a2.1,2.1,0,0,1,.449-.525A1.324,1.324,0,0,1,478.189,1090.253Z" transform="translate(-476.309 -1090.107)"/><path class="b" d="M553.03,1088.072v3.186h-1.268v-2.877a1.319,1.319,0,0,0-.1-.573.641.641,0,0,0-.517-.353v-1.029a2.1,2.1,0,0,1,.223-.011,1.814,1.814,0,0,1,1.2.384A1.56,1.56,0,0,1,553.03,1088.072Z" transform="translate(-548.76 -1086.414)"/></g></g></svg>