<?xml version="1.0" encoding="UTF-8"?>
<svg xmlns="http://www.w3.org/2000/svg" xmlns:xlink="http://www.w3.org/1999/xlink" width="20pt" height="20pt" viewBox="0 0 20 20" version="1.1">
<g id="surface1">
<path style=" stroke:none;fill-rule:nonzero;fill:rgb(0%,0%,0%);fill-opacity:1;" d="M 13.023438 2.488281 C 11.789062 1.75 10.21875 1.90625 9.148438 2.871094 C 8.082031 3.835938 7.769531 5.382812 8.382812 6.6875 L 8.867188 5.878906 C 8.542969 4.519531 9.378906 3.152344 10.734375 2.816406 C 12.09375 2.484375 13.46875 3.308594 13.8125 4.664062 C 14.152344 6.019531 13.339844 7.398438 11.984375 7.753906 L 11.5 8.558594 C 12.9375 8.488281 14.15625 7.484375 14.507812 6.089844 C 14.859375 4.695312 14.257812 3.234375 13.023438 2.488281 Z M 11.902344 4.359375 C 11.210938 3.949219 10.320312 4.171875 9.90625 4.859375 L 7.328125 9.144531 C 7.425781 8.59375 7.285156 8.027344 6.945312 7.582031 C 6.371094 7.089844 5.53125 7.078125 4.945312 7.554688 C 4.65625 7.875 4.472656 8.285156 4.433594 8.714844 C 4.035156 11.042969 3.992188 13.421875 4.308594 15.761719 C 4.324219 15.863281 4.386719 15.953125 4.476562 16.007812 L 8.679688 18.535156 C 8.75 18.574219 8.828125 18.589844 8.902344 18.582031 C 9.652344 18.457031 10.359375 18.144531 10.957031 17.679688 C 11.695312 17.15625 12.359375 16.539062 12.9375 15.847656 C 13.488281 15.222656 13.902344 14.496094 14.160156 13.707031 C 14.410156 13.015625 14.203125 12.242188 13.640625 11.769531 C 13.492188 11.675781 13.332031 11.601562 13.167969 11.542969 C 13.207031 11.324219 13.1875 11.097656 13.109375 10.890625 C 13 10.636719 12.8125 10.421875 12.574219 10.28125 C 12.390625 10.175781 12.179688 10.132812 11.96875 10.152344 C 11.972656 10.015625 11.953125 9.878906 11.910156 9.746094 C 11.796875 9.488281 11.605469 9.269531 11.363281 9.128906 C 11.199219 9.035156 11.019531 8.976562 10.832031 8.953125 L 12.394531 6.355469 C 12.601562 6.027344 12.664062 5.628906 12.570312 5.253906 C 12.480469 4.875 12.238281 4.554688 11.902344 4.359375 Z M 11.527344 4.984375 C 11.695312 5.082031 11.816406 5.242188 11.863281 5.429688 C 11.910156 5.617188 11.878906 5.816406 11.777344 5.980469 L 9.808594 9.253906 C 9.71875 9.398438 9.742188 9.589844 9.867188 9.707031 C 9.988281 9.824219 10.179688 9.84375 10.320312 9.746094 C 10.535156 9.648438 10.78125 9.648438 10.992188 9.753906 C 11.101562 9.824219 11.1875 9.921875 11.242188 10.035156 C 11.3125 10.191406 11.285156 10.371094 11.179688 10.5 C 11.09375 10.644531 11.117188 10.828125 11.238281 10.949219 C 11.355469 11.066406 11.542969 11.085938 11.683594 10.996094 C 11.960938 10.820312 12.054688 10.820312 12.210938 10.910156 C 12.3125 10.980469 12.390625 11.074219 12.445312 11.183594 C 12.519531 11.335938 12.5 11.519531 12.394531 11.65625 C 12.320312 11.777344 12.324219 11.933594 12.40625 12.054688 C 12.492188 12.171875 12.640625 12.226562 12.78125 12.199219 C 12.9375 12.214844 13.082031 12.269531 13.210938 12.359375 C 13.554688 12.628906 13.605469 12.976562 13.460938 13.519531 C 13.230469 14.207031 12.863281 14.839844 12.378906 15.382812 C 11.84375 16.027344 11.226562 16.597656 10.542969 17.085938 C 10.0625 17.449219 9.515625 17.703125 8.929688 17.839844 L 5.003906 15.480469 C 4.734375 13.273438 4.785156 11.039062 5.152344 8.847656 C 5.171875 8.570312 5.273438 8.304688 5.445312 8.082031 C 5.734375 7.863281 6.132812 7.863281 6.417969 8.085938 C 6.675781 8.410156 6.628906 8.679688 6.613281 9.015625 L 6.488281 10.628906 C 6.476562 10.796875 6.582031 10.953125 6.742188 11.003906 C 6.90625 11.054688 7.078125 10.984375 7.164062 10.839844 L 10.53125 5.230469 C 10.628906 5.066406 10.792969 4.945312 10.980469 4.898438 C 11.167969 4.851562 11.367188 4.882812 11.53125 4.984375 Z M 11.527344 4.984375 "/>
</g>
</svg>
