<svg xmlns="http://www.w3.org/2000/svg" width="99.53" height="41.289" viewBox="0 0 99.53 41.289"><defs><style>.a{fill:#fff;}</style></defs><path class="a" d="M32.81,106.421a2.905,2.905,0,0,1,3-3.121c2.263,0,4.223,2.325,4.223,4.835a3.283,3.283,0,0,1-3.06,3.549C34.768,111.684,32.81,109.114,32.81,106.421Z" transform="translate(-32.81 -103.3)"/><path class="a" d="M43.226,228c-.429-3.489-1.836-18.3-1.836-20.017,0-3,.305-5.507,2.566-5.507a3.8,3.8,0,0,1,3.55,4.039c0,4.1-.183,15.728-.183,19.34,0,3.121-.612,4.223-2.081,4.223C43.906,230.086,43.41,229.474,43.226,228Z" transform="translate(-40.289 -189.754)"/><path class="a" d="M108.836,184.866a2.669,2.669,0,0,1,3.017-2.584c2.07.2,3.652,2.5,3.427,4.8a3.007,3.007,0,0,1-3.108,2.969C110.158,189.85,108.6,187.327,108.836,184.866Z" transform="translate(-99.06 -172.136)"/><path class="a" d="M107.647,291.726c-.178-2.217-.561-11.591-.457-12.662.183-1.872.616-3.412,2.684-3.208,1.677.163,3.142,1.349,3,2.838-.257,2.566-1.128,9.806-1.349,12.062-.19,1.95-.816,2.583-2.158,2.452C108.136,293.085,107.725,292.659,107.647,291.726Z" transform="translate(-97.631 -253.699)"/><path class="a" d="M53.634,141.56c.175,1.586.921,2.342,1.781,2.492h0a35.4,35.4,0,0,0,7.947.547c7.87,0,14.053-2.024,17.878-5.85,3.831-3.77,5.856-9.222,5.856-15.767,0-6.192-1.935-11.107-5.749-14.6-3.583-3.336-8.8-5-15.911-5.068H63.875a2.537,2.537,0,0,0-2.538,2.538h0a2.538,2.538,0,0,0,2.537,2.538h1.32c5.16,0,9.126,1.359,11.786,4.036,2.516,2.533,3.778,6.145,3.749,10.74,0,10.514-5.811,16.305-16.364,16.305a104.746,104.746,0,0,1-11.035-.621Z" transform="translate(-50.697 -103.309)"/><path class="a" d="M57.78,406.82" transform="translate(-54.576 -367.874)"/><g transform="translate(43.732 1.279)"><path class="a" d="M375.675,116.211a.624.624,0,0,1,.159-.471.582.582,0,0,1,.784,0,.611.611,0,0,1,.163.468.618.618,0,0,1-.163.471.544.544,0,0,1-.385.155.536.536,0,0,1-.394-.155A.633.633,0,0,1,375.675,116.211Zm1.016,7.861h-.937v-6.185h.937Z" transform="translate(-375.411 -115.291)"/><path class="a" d="M403.322,138.882v-4a1.616,1.616,0,0,0-.344-1.129,1.4,1.4,0,0,0-1.078-.372,1.778,1.778,0,0,0-1.422.525,2.648,2.648,0,0,0-.452,1.732v3.245h-.937V132.7h.758l.151.847h.045a1.915,1.915,0,0,1,.807-.708,2.618,2.618,0,0,1,1.155-.257,2.349,2.349,0,0,1,1.681.539,2.294,2.294,0,0,1,.565,1.725v4.039Z" transform="translate(-395.823 -130.101)"/><path class="a" d="M454.505,139.031a2.639,2.639,0,0,1-2.08-.828,3.4,3.4,0,0,1-.735-2.338,3.51,3.51,0,0,1,.747-2.4,2.69,2.69,0,0,1,2.13-.847,4.213,4.213,0,0,1,.892.1,2.9,2.9,0,0,1,.7.226l-.287.8a4.523,4.523,0,0,0-.677-.207,3.051,3.051,0,0,0-.648-.081q-1.886,0-1.885,2.4a2.864,2.864,0,0,0,.459,1.749,1.6,1.6,0,0,0,1.363.609,4.164,4.164,0,0,0,1.586-.332v.829A3.381,3.381,0,0,1,454.505,139.031Z" transform="translate(-441.674 -130.137)"/><path class="a" d="M498.177,122.051h-.937V113.27h.937Z" transform="translate(-481.379 -113.27)"/><path class="a" d="M520.447,133.5v4.012a1.609,1.609,0,0,0,.345,1.128,1.407,1.407,0,0,0,1.076.373,1.756,1.756,0,0,0,1.419-.531,2.668,2.668,0,0,0,.449-1.732V133.5h.937v6.185h-.77l-.136-.83h-.051a1.862,1.862,0,0,1-.8.7,2.683,2.683,0,0,1-1.165.243,2.364,2.364,0,0,1-1.69-.536,2.291,2.291,0,0,1-.563-1.719V133.5Z" transform="translate(-500.783 -130.904)"/><path class="a" d="M576.573,137.2a1.549,1.549,0,0,1-.642,1.332,3.018,3.018,0,0,1-1.805.468,4,4,0,0,1-1.925-.385v-.869a4.629,4.629,0,0,0,.957.355,3.956,3.956,0,0,0,.984.128,2.244,2.244,0,0,0,1.129-.234.806.806,0,0,0,.082-1.332,4.969,4.969,0,0,0-1.223-.607,6.681,6.681,0,0,1-1.227-.561,1.668,1.668,0,0,1-.542-.545,1.412,1.412,0,0,1-.178-.728,1.386,1.386,0,0,1,.617-1.2,2.861,2.861,0,0,1,1.686-.438,4.939,4.939,0,0,1,1.953.407l-.334.761a4.491,4.491,0,0,0-1.686-.385,1.948,1.948,0,0,0-1,.209.642.642,0,0,0-.339.576.7.7,0,0,0,.128.423,1.26,1.26,0,0,0,.409.332,9.046,9.046,0,0,0,1.083.457,4.037,4.037,0,0,1,1.487.807A1.421,1.421,0,0,1,576.573,137.2Z" transform="translate(-546.706 -130.111)"/><path class="a" d="M617.634,116.211a.623.623,0,0,1,.158-.471.583.583,0,0,1,.784,0,.611.611,0,0,1,.164.468.619.619,0,0,1-.164.471.572.572,0,0,1-.784,0A.633.633,0,0,1,617.634,116.211Zm1.015,7.861h-.937v-6.185h.937Z" transform="translate(-586.322 -115.291)"/><path class="a" d="M635.648,139.667l-2.348-6.185h1l1.332,3.667a17.371,17.371,0,0,1,.53,1.668h.046q.064-.3.393-1.238t1.481-4.1h1l-2.347,6.185Z" transform="translate(-599.98 -130.887)"/><path class="a" d="M686.436,139.031a2.84,2.84,0,0,1-2.163-.835,3.232,3.232,0,0,1-.793-2.319,3.586,3.586,0,0,1,.737-2.376,2.446,2.446,0,0,1,1.977-.88,2.326,2.326,0,0,1,1.84.77,2.937,2.937,0,0,1,.676,2.017V136h-4.265a2.456,2.456,0,0,0,.55,1.653,1.907,1.907,0,0,0,1.471.565,4.98,4.98,0,0,0,1.98-.416v.835a4.954,4.954,0,0,1-.939.307A5.229,5.229,0,0,1,686.436,139.031Zm-.257-5.627a1.524,1.524,0,0,0-1.187.486,2.227,2.227,0,0,0-.522,1.342H687.7a2.057,2.057,0,0,0-.4-1.356,1.392,1.392,0,0,0-1.127-.472Z" transform="translate(-643.721 -130.137)"/><path class="a" d="M378.184,229.3h-.051a2.206,2.206,0,0,1-1.941.942,2.3,2.3,0,0,1-1.888-.829,3.644,3.644,0,0,1-.674-2.36,3.712,3.712,0,0,1,.677-2.375,2.278,2.278,0,0,1,1.884-.847,2.234,2.234,0,0,1,1.925.915h.073l-.038-.445-.023-.435V221.35h.939v8.779H378.3Zm-1.873.158a1.706,1.706,0,0,0,1.391-.522,2.63,2.63,0,0,0,.431-1.685v-.2a3.1,3.1,0,0,0-.438-1.876,1.657,1.657,0,0,0-1.4-.561,1.433,1.433,0,0,0-1.261.642,3.186,3.186,0,0,0-.438,1.808,3.1,3.1,0,0,0,.435,1.789A1.479,1.479,0,0,0,376.31,229.458Z" transform="translate(-373.63 -207.482)"/><path class="a" d="M431.776,247.1a2.84,2.84,0,0,1-2.163-.835,3.232,3.232,0,0,1-.793-2.319,3.584,3.584,0,0,1,.736-2.375,2.454,2.454,0,0,1,1.981-.882,2.326,2.326,0,0,1,1.84.77,2.939,2.939,0,0,1,.676,2.018v.588h-4.26a2.452,2.452,0,0,0,.55,1.654,1.9,1.9,0,0,0,1.469.565,4.989,4.989,0,0,0,1.976-.418v.835a5.04,5.04,0,0,1-.941.308,5.315,5.315,0,0,1-1.073.091Zm-.257-5.625a1.532,1.532,0,0,0-1.188.485,2.234,2.234,0,0,0-.521,1.343h3.234a2.056,2.056,0,0,0-.4-1.358,1.394,1.394,0,0,0-1.127-.471Z" transform="translate(-421.738 -224.34)"/><path class="a" d="M483.373,245.3a1.546,1.546,0,0,1-.642,1.332,3.03,3.03,0,0,1-1.805.468,3.967,3.967,0,0,1-1.918-.385v-.87a4.574,4.574,0,0,0,.956.355,3.981,3.981,0,0,0,.985.128,2.227,2.227,0,0,0,1.128-.235.806.806,0,0,0,.082-1.332,4.915,4.915,0,0,0-1.222-.606,6.675,6.675,0,0,1-1.227-.562,1.684,1.684,0,0,1-.543-.544,1.428,1.428,0,0,1-.173-.73,1.391,1.391,0,0,1,.615-1.193,2.88,2.88,0,0,1,1.687-.438,4.944,4.944,0,0,1,1.953.407l-.334.762a4.466,4.466,0,0,0-1.687-.385,1.942,1.942,0,0,0-1,.208.641.641,0,0,0-.339.576.7.7,0,0,0,.128.423,1.252,1.252,0,0,0,.408.332,9.261,9.261,0,0,0,1.084.458,4.05,4.05,0,0,1,1.487.806A1.431,1.431,0,0,1,483.373,245.3Z" transform="translate(-465.474 -224.34)"/><path class="a" d="M524.355,224.29a.623.623,0,0,1,.159-.471.586.586,0,0,1,.784,0,.612.612,0,0,1,.163.468.622.622,0,0,1-.163.472.549.549,0,0,1-.385.154.541.541,0,0,1-.394-.154A.642.642,0,0,1,524.355,224.29Zm1.016,7.861h-.935v-6.184h.937Z" transform="translate(-505.013 -209.503)"/><path class="a" d="M547.542,240.8v.592l-1.146.136a2,2,0,0,1,.406,1.236,1.829,1.829,0,0,1-.62,1.45,2.5,2.5,0,0,1-1.7.541,2.89,2.89,0,0,1-.52-.045.921.921,0,0,0-.6.8.4.4,0,0,0,.209.375,1.5,1.5,0,0,0,.716.122h1.095a2.434,2.434,0,0,1,1.54.423,1.484,1.484,0,0,1,.539,1.229,1.757,1.757,0,0,1-.824,1.567,4.408,4.408,0,0,1-2.4.539,3.278,3.278,0,0,1-1.871-.452,1.458,1.458,0,0,1-.658-1.275,1.432,1.432,0,0,1,.362-.976,1.836,1.836,0,0,1,1.015-.558.97.97,0,0,1-.4-.334.874.874,0,0,1-.162-.523,1,1,0,0,1,.181-.593,1.9,1.9,0,0,1,.57-.491,1.668,1.668,0,0,1-.781-.671,1.97,1.97,0,0,1-.3-1.083,2,2,0,0,1,.609-1.567,2.491,2.491,0,0,1,1.726-.55,3.124,3.124,0,0,1,.875.114Zm-4.932,7.222a.84.84,0,0,0,.423.762,2.357,2.357,0,0,0,1.213.257,3.383,3.383,0,0,0,1.746-.353,1.078,1.078,0,0,0,.567-.956.754.754,0,0,0-.31-.7,2.412,2.412,0,0,0-1.168-.2h-1.123a1.467,1.467,0,0,0-.993.305A1.085,1.085,0,0,0,542.61,248.024Zm.513-5.242a1.257,1.257,0,0,0,.367.982,1.469,1.469,0,0,0,1.027.334,1.2,1.2,0,0,0,1.37-1.332,1.229,1.229,0,0,0-1.387-1.393,1.259,1.259,0,0,0-1.382,1.409Z" transform="translate(-520.135 -224.339)"/><path class="a" d="M601.342,246.952v-4a1.613,1.613,0,0,0-.344-1.128,1.405,1.405,0,0,0-1.078-.372,1.78,1.78,0,0,0-1.422.524,2.647,2.647,0,0,0-.452,1.734v3.244h-.937v-6.184h.762l.151.846h.046a1.916,1.916,0,0,1,.807-.708,2.626,2.626,0,0,1,1.155-.257,2.345,2.345,0,0,1,1.681.54,2.294,2.294,0,0,1,.565,1.723v4.034Z" transform="translate(-568.434 -224.305)"/><path class="a" d="M673,230.719a2.215,2.215,0,0,1,.394-1.3,4.261,4.261,0,0,1,1.411-1.139,6.969,6.969,0,0,1-.652-.812,2.851,2.851,0,0,1-.273-.576,1.906,1.906,0,0,1-.1-.621,1.644,1.644,0,0,1,.553-1.32,2.3,2.3,0,0,1,1.54-.473,2.078,2.078,0,0,1,1.44.471,1.673,1.673,0,0,1,.525,1.313,1.818,1.818,0,0,1-.385,1.114,4.32,4.32,0,0,1-1.27,1.035l2.3,2.206a2.748,2.748,0,0,0,.505-.82,7.02,7.02,0,0,0,.318-1.027h.948a5.431,5.431,0,0,1-1.155,2.45l1.687,1.641h-1.3l-1.043-1a4,4,0,0,1-2.89,1.118,2.726,2.726,0,0,1-1.881-.6A2.119,2.119,0,0,1,673,230.719Zm2.574,1.411a3.116,3.116,0,0,0,2.257-.869l-2.466-2.393a5.43,5.43,0,0,0-.885.635,1.65,1.65,0,0,0-.385.539,1.623,1.623,0,0,0-.128.654,1.324,1.324,0,0,0,.438,1.047,1.7,1.7,0,0,0,1.172.386Zm-.875-5.879a1.471,1.471,0,0,0,.2.742,4.537,4.537,0,0,0,.694.849,3.7,3.7,0,0,0,1.014-.781,1.291,1.291,0,0,0,.285-.828.928.928,0,0,0-.291-.707,1.079,1.079,0,0,0-.77-.275,1.209,1.209,0,0,0-.816.271.913.913,0,0,0-.317.729Z" transform="translate(-634.584 -210.21)"/><path class="a" d="M375.674,332.361a.621.621,0,0,1,.159-.471.582.582,0,0,1,.784,0,.611.611,0,0,1,.163.468.621.621,0,0,1-.163.471.544.544,0,0,1-.385.155.536.536,0,0,1-.394-.155A.641.641,0,0,1,375.674,332.361Zm1.016,7.861h-.937v-6.185h.937Z" transform="translate(-375.41 -303.705)"/><path class="a" d="M403.331,355.058v-4a1.616,1.616,0,0,0-.344-1.129,1.39,1.39,0,0,0-1.077-.368,1.777,1.777,0,0,0-1.422.525,2.648,2.648,0,0,0-.452,1.732v3.245H399.1v-6.185h.757l.151.846h.045a1.925,1.925,0,0,1,.807-.707,2.617,2.617,0,0,1,1.155-.257,2.349,2.349,0,0,1,1.681.539,2.292,2.292,0,0,1,.565,1.723v4.036Z" transform="translate(-395.832 -318.542)"/><path class="a" d="M458.6,355.032v-4a1.622,1.622,0,0,0-.344-1.129,1.4,1.4,0,0,0-1.078-.372,1.775,1.775,0,0,0-1.422.525,2.659,2.659,0,0,0-.452,1.732v3.245h-.937v-6.185h.761l.153.846h.045a1.912,1.912,0,0,1,.807-.707,2.614,2.614,0,0,1,1.155-.257,2.349,2.349,0,0,1,1.681.539,2.292,2.292,0,0,1,.565,1.723v4.036Z" transform="translate(-444.01 -318.516)"/><path class="a" d="M512.669,351.969a3.412,3.412,0,0,1-.762,2.362,2.679,2.679,0,0,1-2.1.848,2.791,2.791,0,0,1-1.473-.385,2.567,2.567,0,0,1-.993-1.118,3.89,3.89,0,0,1-.345-1.708,3.408,3.408,0,0,1,.757-2.356,2.664,2.664,0,0,1,2.1-.843,2.615,2.615,0,0,1,2.063.864A3.385,3.385,0,0,1,512.669,351.969Zm-4.712,0a2.941,2.941,0,0,0,.474,1.807,1.641,1.641,0,0,0,1.393.62,1.659,1.659,0,0,0,1.4-.617,3.652,3.652,0,0,0,0-3.606,1.63,1.63,0,0,0-1.408-.6,1.649,1.649,0,0,0-1.387.6A2.892,2.892,0,0,0,507.957,351.969Z" transform="translate(-489.877 -318.552)"/><path class="a" d="M558.648,355.774l-2.348-6.185h1l1.332,3.667a17.373,17.373,0,0,1,.53,1.668h.046q.064-.3.393-1.238t1.481-4.106h1l-2.347,6.185Z" transform="translate(-532.861 -319.258)"/><path class="a" d="M609.817,355.181l-.186-.879h-.045a2.6,2.6,0,0,1-.922.787,2.822,2.822,0,0,1-1.148.205,2.069,2.069,0,0,1-1.442-.473,1.727,1.727,0,0,1-.522-1.349q0-1.872,3-1.963l1.049-.035v-.385a1.561,1.561,0,0,0-.314-1.074,1.294,1.294,0,0,0-1-.348,4.089,4.089,0,0,0-1.749.475l-.284-.716a4.4,4.4,0,0,1,1-.385,4.3,4.3,0,0,1,1.092-.141,2.358,2.358,0,0,1,1.639.49,2.035,2.035,0,0,1,.529,1.576v4.222Zm-2.116-.661a1.9,1.9,0,0,0,1.374-.48,1.768,1.768,0,0,0,.5-1.342v-.559l-.937.04a3.436,3.436,0,0,0-1.612.346,1.048,1.048,0,0,0-.493.957.961.961,0,0,0,.307.77A1.283,1.283,0,0,0,607.7,354.52Z" transform="translate(-575.791 -318.665)"/><path class="a" d="M655.668,345.463a3.075,3.075,0,0,0,.48-.037,2.936,2.936,0,0,0,.367-.076v.716a1.67,1.67,0,0,1-.448.128,3.365,3.365,0,0,1-.534.047q-1.8,0-1.8-1.89v-3.685h-.887v-.452l.887-.385.394-1.32h.543v1.433h1.8v.728h-1.8v3.64a1.251,1.251,0,0,0,.264.857A.925.925,0,0,0,655.668,345.463Z" transform="translate(-617.022 -309.608)"/><path class="a" d="M690.414,332.361a.621.621,0,0,1,.158-.471.583.583,0,0,1,.784,0,.612.612,0,0,1,.164.468.621.621,0,0,1-.164.471.572.572,0,0,1-.784,0A.642.642,0,0,1,690.414,332.361Zm1.015,7.861h-.942v-6.185h.937Z" transform="translate(-649.763 -303.705)"/><path class="a" d="M716.815,351.995a3.416,3.416,0,0,1-.761,2.362,2.679,2.679,0,0,1-2.106.848,2.8,2.8,0,0,1-1.473-.385,2.557,2.557,0,0,1-.992-1.118,3.892,3.892,0,0,1-.35-1.7,3.412,3.412,0,0,1,.756-2.356,2.663,2.663,0,0,1,2.1-.843,2.616,2.616,0,0,1,2.062.864A3.39,3.39,0,0,1,716.815,351.995Zm-4.712,0a2.934,2.934,0,0,0,.475,1.807,1.882,1.882,0,0,0,2.789,0,2.928,2.928,0,0,0,.477-1.809,2.9,2.9,0,0,0-.477-1.8,1.915,1.915,0,0,0-2.8-.008A2.9,2.9,0,0,0,712.1,351.995Z" transform="translate(-667.825 -318.578)"/><path class="a" d="M772.452,355.032v-4a1.616,1.616,0,0,0-.344-1.129,1.4,1.4,0,0,0-1.078-.372,1.775,1.775,0,0,0-1.422.525,2.659,2.659,0,0,0-.452,1.732v3.245h-.937v-6.185h.762l.151.846h.045a1.913,1.913,0,0,1,.807-.707,2.614,2.614,0,0,1,1.155-.257,2.348,2.348,0,0,1,1.681.539,2.291,2.291,0,0,1,.565,1.723v4.036Z" transform="translate(-717.588 -318.516)"/></g></svg>