<svg id="Component_10_1" data-name="Component 10 – 1" xmlns="http://www.w3.org/2000/svg" width="97.984" height="41.427" viewBox="0 0 97.984 41.427">
  <g id="Group_152" data-name="Group 152">
    <path id="Path_47" data-name="Path 47" d="M25.406,16.074a5.776,5.776,0,0,0-1.952.511A6.213,6.213,0,0,0,21.462,18a6.56,6.56,0,0,0-1.3,2.074,6.677,6.677,0,0,0-.47,2.483,6.609,6.609,0,0,0,.47,2.488,6.474,6.474,0,0,0,1.3,2.049,6.179,6.179,0,0,0,1.982,1.4,6.026,6.026,0,0,0,1.962.5v1.359a8.017,8.017,0,0,1-2.493-.572,7.664,7.664,0,0,1-2.508-1.65,7.853,7.853,0,0,1-1.686-2.483,7.681,7.681,0,0,1-.618-3.091,7.576,7.576,0,0,1,.628-3.07,8.1,8.1,0,0,1,1.7-2.5A8,8,0,0,1,22.934,15.3a7.644,7.644,0,0,1,2.473-.592Zm.807,12.945a6.369,6.369,0,0,0,2.35-.5,5.925,5.925,0,0,0,1.982-1.379,6.2,6.2,0,0,0,1.277-2.049,6.937,6.937,0,0,0,.449-2.508A7.251,7.251,0,0,0,31.823,20a6.248,6.248,0,0,0-1.267-2.069,5.823,5.823,0,0,0-1.972-1.379,6.484,6.484,0,0,0-2.371-.5V14.684a8.172,8.172,0,0,1,2.9.593,7.576,7.576,0,0,1,4.153,4.153,8.357,8.357,0,0,1-.01,6.233,7.772,7.772,0,0,1-1.665,2.493A7.452,7.452,0,0,1,29.1,29.8a8.28,8.28,0,0,1-2.892.582Z" transform="translate(-18.101 -14.398)" fill="#fff"/>
    <path id="Path_48" data-name="Path 48" d="M84.741,13.591,96,25.852V14.092h1.594V29.908L86.335,17.627v11.74H84.741Z" transform="translate(-67.31 -13.591)" fill="#fff"/>
    <path id="Path_49" data-name="Path 49" d="M147.573,30.378a8.147,8.147,0,0,1-3.1-.592,7.836,7.836,0,0,1-4.23-10.294,7.866,7.866,0,0,1,1.7-2.5,8.086,8.086,0,0,1,2.508-1.686,7.639,7.639,0,0,1,3.065-.618,7.959,7.959,0,0,1,3.77.884,7.691,7.691,0,0,1,2.779,2.488l-1.2.838a6.867,6.867,0,0,0-2.186-2.079,6.638,6.638,0,0,0-5.665-.24,6.206,6.206,0,0,0-2,1.41,6.458,6.458,0,0,0-1.308,2.074,6.93,6.93,0,0,0-.01,4.991A6.24,6.24,0,0,0,143,27.1a6.314,6.314,0,0,0,1.987,1.4,6.054,6.054,0,0,0,2.529.521,8.229,8.229,0,0,0,3.193-.541,4.094,4.094,0,0,0,1.814-1.3V23.941h-4.026V22.582H154.1V27.6a4.106,4.106,0,0,1-.9,1.027,6.276,6.276,0,0,1-1.426.889,9.472,9.472,0,0,1-1.885.623A10.45,10.45,0,0,1,147.573,30.378Z" transform="translate(-107.838 -14.398)" fill="#fff"/>
    <path id="Path_50" data-name="Path 50" d="M209.078,16.074a5.774,5.774,0,0,0-1.952.511A6.213,6.213,0,0,0,205.134,18a6.56,6.56,0,0,0-1.3,2.074,6.676,6.676,0,0,0-.47,2.483,6.609,6.609,0,0,0,.47,2.488,6.474,6.474,0,0,0,1.3,2.049,6.179,6.179,0,0,0,1.982,1.4,6.026,6.026,0,0,0,1.962.5v1.359a8.017,8.017,0,0,1-2.493-.572,7.664,7.664,0,0,1-2.508-1.65,7.853,7.853,0,0,1-1.686-2.483,7.681,7.681,0,0,1-.618-3.091,7.572,7.572,0,0,1,.628-3.07,8.1,8.1,0,0,1,1.7-2.5,8,8,0,0,1,2.508-1.691,7.644,7.644,0,0,1,2.473-.592Zm.807,12.945a6.37,6.37,0,0,0,2.35-.5,5.925,5.925,0,0,0,1.982-1.379,6.2,6.2,0,0,0,1.277-2.049,6.937,6.937,0,0,0,.449-2.508,7.251,7.251,0,0,0-.449-2.58,6.247,6.247,0,0,0-1.267-2.069,5.824,5.824,0,0,0-1.972-1.379,6.484,6.484,0,0,0-2.371-.5V14.684a8.173,8.173,0,0,1,2.9.593,7.576,7.576,0,0,1,4.153,4.153,8.357,8.357,0,0,1-.01,6.233,7.773,7.773,0,0,1-1.665,2.493,7.455,7.455,0,0,1-2.488,1.64,8.281,8.281,0,0,1-2.892.582Z" transform="translate(-153.731 -14.398)" fill="#fff"/>
    <path id="Path_51" data-name="Path 51" d="M268.414,15.5h1.594V30.78h-1.594Z" transform="translate(-202.941 -15.004)" fill="#fff"/>
    <path id="Path_52" data-name="Path 52" d="M282.476,13.591l11.26,12.261V14.092h1.594V29.908L284.07,17.627v11.74h-1.594Z" transform="translate(-213.325 -13.591)" fill="#fff"/>
    <path id="Path_53" data-name="Path 53" d="M345.308,30.378a8.148,8.148,0,0,1-3.1-.592,7.836,7.836,0,0,1-4.23-10.294,7.866,7.866,0,0,1,1.7-2.5,8.085,8.085,0,0,1,2.508-1.686,7.639,7.639,0,0,1,3.065-.618,7.959,7.959,0,0,1,3.77.884,7.69,7.69,0,0,1,2.779,2.488l-1.2.838a6.867,6.867,0,0,0-2.186-2.079,6.638,6.638,0,0,0-5.665-.24,6.2,6.2,0,0,0-2,1.41,6.459,6.459,0,0,0-1.308,2.074,6.931,6.931,0,0,0-.01,4.991,6.24,6.24,0,0,0,1.3,2.049,6.31,6.31,0,0,0,1.987,1.4,6.054,6.054,0,0,0,2.529.521,8.23,8.23,0,0,0,3.193-.541,4.1,4.1,0,0,0,1.814-1.3V23.941h-4.026V22.582h5.609V27.6a4.107,4.107,0,0,1-.9,1.027,6.277,6.277,0,0,1-1.426.889,9.472,9.472,0,0,1-1.885.623A10.451,10.451,0,0,1,345.308,30.378Z" transform="translate(-253.853 -14.398)" fill="#fff"/>
    <path id="Path_54" data-name="Path 54" d="M19.7,109.591l11.26,12.261v-11.76h1.594v15.816L21.3,113.627v11.74H19.7Z" transform="translate(-19.283 -84.481)" fill="#fff"/>
    <path id="Path_55" data-name="Path 55" d="M76.773,125.421h9.41v1.359h-9.4Zm.01-13.916h9.4v1.359h-9.4Zm0,6.754h9.022v1.369H76.783Z" transform="translate(-61.427 -85.894)" fill="#fff"/>
    <path id="Path_56" data-name="Path 56" d="M121.458,126.378a6.918,6.918,0,0,1-2.779-.562,5.872,5.872,0,0,1-2.258-1.757l1.144-.96a5.042,5.042,0,0,0,1.691,1.41,4.768,4.768,0,0,0,2.243.531,3.544,3.544,0,0,0,1.333-.24,3.075,3.075,0,0,0,1.016-.649,2.865,2.865,0,0,0,.649-.96,3.049,3.049,0,0,0,.23-1.185,2.286,2.286,0,0,0-.21-1.012,2.666,2.666,0,0,0-.557-.761,3.486,3.486,0,0,0-.828-.577q-.48-.245-1-.449l-1.8-.695a9.4,9.4,0,0,1-1.216-.572,4.2,4.2,0,0,1-1.022-.8,3.735,3.735,0,0,1-.7-1.088,3.663,3.663,0,0,1-.266-1.456,3.486,3.486,0,0,1,.347-1.543,3.862,3.862,0,0,1,.945-1.236,4.589,4.589,0,0,1,1.41-.828,4.955,4.955,0,0,1,1.763-.307,5.8,5.8,0,0,1,2.268.388,6.448,6.448,0,0,1,1.706,1.083l-.96,1.1a4.566,4.566,0,0,0-1.333-.894,4.205,4.205,0,0,0-1.681-.312,3.3,3.3,0,0,0-1.124.184,2.712,2.712,0,0,0-.9.531,2.549,2.549,0,0,0-.608.807,2.292,2.292,0,0,0-.22,1,1.992,1.992,0,0,0,.189.894,2.38,2.38,0,0,0,.5.68,3.38,3.38,0,0,0,.741.526,7.919,7.919,0,0,0,.909.414l1.737.695a11.159,11.159,0,0,1,1.3.613,4.978,4.978,0,0,1,1.119.838,3.721,3.721,0,0,1,.782,1.16,3.964,3.964,0,0,1,.291,1.589,4.058,4.058,0,0,1-.373,1.732,4.343,4.343,0,0,1-1.032,1.4,4.745,4.745,0,0,1-1.548.93A5.386,5.386,0,0,1,121.458,126.378Z" transform="translate(-90.704 -85.288)" fill="#fff"/>
    <path id="Path_57" data-name="Path 57" d="M162.435,126.378a6.918,6.918,0,0,1-2.779-.562,5.873,5.873,0,0,1-2.258-1.757l1.144-.96a5.04,5.04,0,0,0,1.691,1.41,4.769,4.769,0,0,0,2.243.531,3.541,3.541,0,0,0,1.333-.24,3.073,3.073,0,0,0,1.017-.649,2.87,2.87,0,0,0,.649-.96,3.054,3.054,0,0,0,.23-1.185,2.286,2.286,0,0,0-.209-1.012,2.671,2.671,0,0,0-.557-.761,3.492,3.492,0,0,0-.828-.577q-.481-.245-1-.449l-1.8-.695a9.392,9.392,0,0,1-1.216-.572,4.2,4.2,0,0,1-1.022-.8,3.729,3.729,0,0,1-.7-1.088,3.663,3.663,0,0,1-.266-1.456,3.482,3.482,0,0,1,.347-1.543,3.865,3.865,0,0,1,.945-1.236,4.594,4.594,0,0,1,1.41-.828,4.953,4.953,0,0,1,1.762-.307,5.8,5.8,0,0,1,2.268.388,6.45,6.45,0,0,1,1.706,1.083l-.96,1.1a4.569,4.569,0,0,0-1.333-.894,4.207,4.207,0,0,0-1.681-.312,3.3,3.3,0,0,0-1.124.184,2.711,2.711,0,0,0-.9.531,2.546,2.546,0,0,0-.608.807,2.289,2.289,0,0,0-.22,1,2,2,0,0,0,.189.894,2.385,2.385,0,0,0,.5.68,3.374,3.374,0,0,0,.741.526,7.917,7.917,0,0,0,.909.414l1.737.695a11.156,11.156,0,0,1,1.3.613,4.974,4.974,0,0,1,1.119.838A3.721,3.721,0,0,1,167,120.4a3.964,3.964,0,0,1,.291,1.589,4.055,4.055,0,0,1-.373,1.732,4.342,4.342,0,0,1-1.032,1.4,4.748,4.748,0,0,1-1.548.93A5.388,5.388,0,0,1,162.435,126.378Z" transform="translate(-120.963 -85.288)" fill="#fff"/>
  </g>
  <g id="Group_153" data-name="Group 153">
    <path id="Path_58" data-name="Path 58" d="M25.406,16.074a5.776,5.776,0,0,0-1.952.511A6.213,6.213,0,0,0,21.462,18a6.56,6.56,0,0,0-1.3,2.074,6.677,6.677,0,0,0-.47,2.483,6.609,6.609,0,0,0,.47,2.488,6.474,6.474,0,0,0,1.3,2.049,6.179,6.179,0,0,0,1.982,1.4,6.026,6.026,0,0,0,1.962.5v1.359a8.017,8.017,0,0,1-2.493-.572,7.664,7.664,0,0,1-2.508-1.65,7.853,7.853,0,0,1-1.686-2.483,7.681,7.681,0,0,1-.618-3.091,7.576,7.576,0,0,1,.628-3.07,8.1,8.1,0,0,1,1.7-2.5A8,8,0,0,1,22.934,15.3a7.644,7.644,0,0,1,2.473-.592Zm.807,12.945a6.369,6.369,0,0,0,2.35-.5,5.925,5.925,0,0,0,1.982-1.379,6.2,6.2,0,0,0,1.277-2.049,6.937,6.937,0,0,0,.449-2.508A7.251,7.251,0,0,0,31.823,20a6.248,6.248,0,0,0-1.267-2.069,5.823,5.823,0,0,0-1.972-1.379,6.484,6.484,0,0,0-2.371-.5V14.684a8.172,8.172,0,0,1,2.9.593,7.576,7.576,0,0,1,4.153,4.153,8.357,8.357,0,0,1-.01,6.233,7.772,7.772,0,0,1-1.665,2.493A7.452,7.452,0,0,1,29.1,29.8a8.28,8.28,0,0,1-2.892.582Z" transform="translate(-18.101 -14.398)" fill="#fff"/>
    <path id="Path_59" data-name="Path 59" d="M84.741,13.591,96,25.852V14.092h1.594V29.908L86.335,17.627v11.74H84.741Z" transform="translate(-67.31 -13.591)" fill="#fff"/>
    <path id="Path_60" data-name="Path 60" d="M147.573,30.378a8.147,8.147,0,0,1-3.1-.592,7.836,7.836,0,0,1-4.23-10.294,7.866,7.866,0,0,1,1.7-2.5,8.086,8.086,0,0,1,2.508-1.686,7.639,7.639,0,0,1,3.065-.618,7.959,7.959,0,0,1,3.77.884,7.691,7.691,0,0,1,2.779,2.488l-1.2.838a6.867,6.867,0,0,0-2.186-2.079,6.638,6.638,0,0,0-5.665-.24,6.206,6.206,0,0,0-2,1.41,6.458,6.458,0,0,0-1.308,2.074,6.93,6.93,0,0,0-.01,4.991A6.24,6.24,0,0,0,143,27.1a6.314,6.314,0,0,0,1.987,1.4,6.054,6.054,0,0,0,2.529.521,8.229,8.229,0,0,0,3.193-.541,4.094,4.094,0,0,0,1.814-1.3V23.941h-4.026V22.582H154.1V27.6a4.106,4.106,0,0,1-.9,1.027,6.276,6.276,0,0,1-1.426.889,9.472,9.472,0,0,1-1.885.623A10.45,10.45,0,0,1,147.573,30.378Z" transform="translate(-107.838 -14.398)" fill="#fff"/>
    <path id="Path_61" data-name="Path 61" d="M209.078,16.074a5.774,5.774,0,0,0-1.952.511A6.213,6.213,0,0,0,205.134,18a6.56,6.56,0,0,0-1.3,2.074,6.676,6.676,0,0,0-.47,2.483,6.609,6.609,0,0,0,.47,2.488,6.474,6.474,0,0,0,1.3,2.049,6.179,6.179,0,0,0,1.982,1.4,6.026,6.026,0,0,0,1.962.5v1.359a8.017,8.017,0,0,1-2.493-.572,7.664,7.664,0,0,1-2.508-1.65,7.853,7.853,0,0,1-1.686-2.483,7.681,7.681,0,0,1-.618-3.091,7.572,7.572,0,0,1,.628-3.07,8.1,8.1,0,0,1,1.7-2.5,8,8,0,0,1,2.508-1.691,7.644,7.644,0,0,1,2.473-.592Zm.807,12.945a6.37,6.37,0,0,0,2.35-.5,5.925,5.925,0,0,0,1.982-1.379,6.2,6.2,0,0,0,1.277-2.049,6.937,6.937,0,0,0,.449-2.508,7.251,7.251,0,0,0-.449-2.58,6.247,6.247,0,0,0-1.267-2.069,5.824,5.824,0,0,0-1.972-1.379,6.484,6.484,0,0,0-2.371-.5V14.684a8.173,8.173,0,0,1,2.9.593,7.576,7.576,0,0,1,4.153,4.153,8.357,8.357,0,0,1-.01,6.233,7.773,7.773,0,0,1-1.665,2.493,7.455,7.455,0,0,1-2.488,1.64,8.281,8.281,0,0,1-2.892.582Z" transform="translate(-153.731 -14.398)" fill="#fff"/>
    <path id="Path_62" data-name="Path 62" d="M268.414,15.5h1.594V30.78h-1.594Z" transform="translate(-202.941 -15.004)" fill="#fff"/>
    <path id="Path_63" data-name="Path 63" d="M282.476,13.591l11.26,12.261V14.092h1.594V29.908L284.07,17.627v11.74h-1.594Z" transform="translate(-213.325 -13.591)" fill="#fff"/>
    <path id="Path_64" data-name="Path 64" d="M345.308,30.378a8.148,8.148,0,0,1-3.1-.592,7.836,7.836,0,0,1-4.23-10.294,7.866,7.866,0,0,1,1.7-2.5,8.085,8.085,0,0,1,2.508-1.686,7.639,7.639,0,0,1,3.065-.618,7.959,7.959,0,0,1,3.77.884,7.69,7.69,0,0,1,2.779,2.488l-1.2.838a6.867,6.867,0,0,0-2.186-2.079,6.638,6.638,0,0,0-5.665-.24,6.2,6.2,0,0,0-2,1.41,6.459,6.459,0,0,0-1.308,2.074,6.931,6.931,0,0,0-.01,4.991,6.24,6.24,0,0,0,1.3,2.049,6.31,6.31,0,0,0,1.987,1.4,6.054,6.054,0,0,0,2.529.521,8.23,8.23,0,0,0,3.193-.541,4.1,4.1,0,0,0,1.814-1.3V23.941h-4.026V22.582h5.609V27.6a4.107,4.107,0,0,1-.9,1.027,6.277,6.277,0,0,1-1.426.889,9.472,9.472,0,0,1-1.885.623A10.451,10.451,0,0,1,345.308,30.378Z" transform="translate(-253.853 -14.398)" fill="#fff"/>
    <path id="Path_65" data-name="Path 65" d="M19.7,109.591l11.26,12.261v-11.76h1.594v15.816L21.3,113.627v11.74H19.7Z" transform="translate(-19.283 -84.481)" fill="#fff"/>
    <path id="Path_66" data-name="Path 66" d="M76.773,125.421h9.41v1.359h-9.4Zm.01-13.916h9.4v1.359h-9.4Zm0,6.754h9.022v1.369H76.783Z" transform="translate(-61.427 -85.894)" fill="#fff"/>
    <path id="Path_67" data-name="Path 67" d="M121.458,126.378a6.918,6.918,0,0,1-2.779-.562,5.872,5.872,0,0,1-2.258-1.757l1.144-.96a5.042,5.042,0,0,0,1.691,1.41,4.768,4.768,0,0,0,2.243.531,3.544,3.544,0,0,0,1.333-.24,3.075,3.075,0,0,0,1.016-.649,2.865,2.865,0,0,0,.649-.96,3.049,3.049,0,0,0,.23-1.185,2.286,2.286,0,0,0-.21-1.012,2.666,2.666,0,0,0-.557-.761,3.486,3.486,0,0,0-.828-.577q-.48-.245-1-.449l-1.8-.695a9.4,9.4,0,0,1-1.216-.572,4.2,4.2,0,0,1-1.022-.8,3.735,3.735,0,0,1-.7-1.088,3.663,3.663,0,0,1-.266-1.456,3.486,3.486,0,0,1,.347-1.543,3.862,3.862,0,0,1,.945-1.236,4.589,4.589,0,0,1,1.41-.828,4.955,4.955,0,0,1,1.763-.307,5.8,5.8,0,0,1,2.268.388,6.448,6.448,0,0,1,1.706,1.083l-.96,1.1a4.566,4.566,0,0,0-1.333-.894,4.205,4.205,0,0,0-1.681-.312,3.3,3.3,0,0,0-1.124.184,2.712,2.712,0,0,0-.9.531,2.549,2.549,0,0,0-.608.807,2.292,2.292,0,0,0-.22,1,1.992,1.992,0,0,0,.189.894,2.38,2.38,0,0,0,.5.68,3.38,3.38,0,0,0,.741.526,7.919,7.919,0,0,0,.909.414l1.737.695a11.159,11.159,0,0,1,1.3.613,4.978,4.978,0,0,1,1.119.838,3.721,3.721,0,0,1,.782,1.16,3.964,3.964,0,0,1,.291,1.589,4.058,4.058,0,0,1-.373,1.732,4.343,4.343,0,0,1-1.032,1.4,4.745,4.745,0,0,1-1.548.93A5.386,5.386,0,0,1,121.458,126.378Z" transform="translate(-90.704 -85.288)" fill="#fff"/>
    <path id="Path_68" data-name="Path 68" d="M162.435,126.378a6.918,6.918,0,0,1-2.779-.562,5.873,5.873,0,0,1-2.258-1.757l1.144-.96a5.04,5.04,0,0,0,1.691,1.41,4.769,4.769,0,0,0,2.243.531,3.541,3.541,0,0,0,1.333-.24,3.073,3.073,0,0,0,1.017-.649,2.87,2.87,0,0,0,.649-.96,3.054,3.054,0,0,0,.23-1.185,2.286,2.286,0,0,0-.209-1.012,2.671,2.671,0,0,0-.557-.761,3.492,3.492,0,0,0-.828-.577q-.481-.245-1-.449l-1.8-.695a9.392,9.392,0,0,1-1.216-.572,4.2,4.2,0,0,1-1.022-.8,3.729,3.729,0,0,1-.7-1.088,3.663,3.663,0,0,1-.266-1.456,3.482,3.482,0,0,1,.347-1.543,3.865,3.865,0,0,1,.945-1.236,4.594,4.594,0,0,1,1.41-.828,4.953,4.953,0,0,1,1.762-.307,5.8,5.8,0,0,1,2.268.388,6.45,6.45,0,0,1,1.706,1.083l-.96,1.1a4.569,4.569,0,0,0-1.333-.894,4.207,4.207,0,0,0-1.681-.312,3.3,3.3,0,0,0-1.124.184,2.711,2.711,0,0,0-.9.531,2.546,2.546,0,0,0-.608.807,2.289,2.289,0,0,0-.22,1,2,2,0,0,0,.189.894,2.385,2.385,0,0,0,.5.68,3.374,3.374,0,0,0,.741.526,7.917,7.917,0,0,0,.909.414l1.737.695a11.156,11.156,0,0,1,1.3.613,4.974,4.974,0,0,1,1.119.838A3.721,3.721,0,0,1,167,120.4a3.964,3.964,0,0,1,.291,1.589,4.055,4.055,0,0,1-.373,1.732,4.342,4.342,0,0,1-1.032,1.4,4.748,4.748,0,0,1-1.548.93A5.388,5.388,0,0,1,162.435,126.378Z" transform="translate(-120.963 -85.288)" fill="#fff"/>
  </g>
  <g id="Group_154" data-name="Group 154">
    <path id="Path_69" data-name="Path 69" d="M25.406,16.074a5.776,5.776,0,0,0-1.952.511A6.213,6.213,0,0,0,21.462,18a6.56,6.56,0,0,0-1.3,2.074,6.677,6.677,0,0,0-.47,2.483,6.609,6.609,0,0,0,.47,2.488,6.474,6.474,0,0,0,1.3,2.049,6.179,6.179,0,0,0,1.982,1.4,6.026,6.026,0,0,0,1.962.5v1.359a8.017,8.017,0,0,1-2.493-.572,7.664,7.664,0,0,1-2.508-1.65,7.853,7.853,0,0,1-1.686-2.483,7.681,7.681,0,0,1-.618-3.091,7.576,7.576,0,0,1,.628-3.07,8.1,8.1,0,0,1,1.7-2.5A8,8,0,0,1,22.934,15.3a7.644,7.644,0,0,1,2.473-.592Zm.807,12.945a6.369,6.369,0,0,0,2.35-.5,5.925,5.925,0,0,0,1.982-1.379,6.2,6.2,0,0,0,1.277-2.049,6.937,6.937,0,0,0,.449-2.508A7.251,7.251,0,0,0,31.823,20a6.248,6.248,0,0,0-1.267-2.069,5.823,5.823,0,0,0-1.972-1.379,6.484,6.484,0,0,0-2.371-.5V14.684a8.172,8.172,0,0,1,2.9.593,7.576,7.576,0,0,1,4.153,4.153,8.357,8.357,0,0,1-.01,6.233,7.772,7.772,0,0,1-1.665,2.493A7.452,7.452,0,0,1,29.1,29.8a8.28,8.28,0,0,1-2.892.582Z" transform="translate(-18.101 -14.398)" fill="#fff"/>
    <path id="Path_70" data-name="Path 70" d="M84.741,13.591,96,25.852V14.092h1.594V29.908L86.335,17.627v11.74H84.741Z" transform="translate(-67.31 -13.591)" fill="#fff"/>
    <path id="Path_71" data-name="Path 71" d="M147.573,30.378a8.147,8.147,0,0,1-3.1-.592,7.836,7.836,0,0,1-4.23-10.294,7.866,7.866,0,0,1,1.7-2.5,8.086,8.086,0,0,1,2.508-1.686,7.639,7.639,0,0,1,3.065-.618,7.959,7.959,0,0,1,3.77.884,7.691,7.691,0,0,1,2.779,2.488l-1.2.838a6.867,6.867,0,0,0-2.186-2.079,6.638,6.638,0,0,0-5.665-.24,6.206,6.206,0,0,0-2,1.41,6.458,6.458,0,0,0-1.308,2.074,6.93,6.93,0,0,0-.01,4.991A6.24,6.24,0,0,0,143,27.1a6.314,6.314,0,0,0,1.987,1.4,6.054,6.054,0,0,0,2.529.521,8.229,8.229,0,0,0,3.193-.541,4.094,4.094,0,0,0,1.814-1.3V23.941h-4.026V22.582H154.1V27.6a4.106,4.106,0,0,1-.9,1.027,6.276,6.276,0,0,1-1.426.889,9.472,9.472,0,0,1-1.885.623A10.45,10.45,0,0,1,147.573,30.378Z" transform="translate(-107.838 -14.398)" fill="#fff"/>
    <path id="Path_72" data-name="Path 72" d="M209.078,16.074a5.774,5.774,0,0,0-1.952.511A6.213,6.213,0,0,0,205.134,18a6.56,6.56,0,0,0-1.3,2.074,6.676,6.676,0,0,0-.47,2.483,6.609,6.609,0,0,0,.47,2.488,6.474,6.474,0,0,0,1.3,2.049,6.179,6.179,0,0,0,1.982,1.4,6.026,6.026,0,0,0,1.962.5v1.359a8.017,8.017,0,0,1-2.493-.572,7.664,7.664,0,0,1-2.508-1.65,7.853,7.853,0,0,1-1.686-2.483,7.681,7.681,0,0,1-.618-3.091,7.572,7.572,0,0,1,.628-3.07,8.1,8.1,0,0,1,1.7-2.5,8,8,0,0,1,2.508-1.691,7.644,7.644,0,0,1,2.473-.592Zm.807,12.945a6.37,6.37,0,0,0,2.35-.5,5.925,5.925,0,0,0,1.982-1.379,6.2,6.2,0,0,0,1.277-2.049,6.937,6.937,0,0,0,.449-2.508,7.251,7.251,0,0,0-.449-2.58,6.247,6.247,0,0,0-1.267-2.069,5.824,5.824,0,0,0-1.972-1.379,6.484,6.484,0,0,0-2.371-.5V14.684a8.173,8.173,0,0,1,2.9.593,7.576,7.576,0,0,1,4.153,4.153,8.357,8.357,0,0,1-.01,6.233,7.773,7.773,0,0,1-1.665,2.493,7.455,7.455,0,0,1-2.488,1.64,8.281,8.281,0,0,1-2.892.582Z" transform="translate(-153.731 -14.398)" fill="#fff"/>
    <path id="Path_73" data-name="Path 73" d="M268.414,15.5h1.594V30.78h-1.594Z" transform="translate(-202.941 -15.004)" fill="#fff"/>
    <path id="Path_74" data-name="Path 74" d="M282.476,13.591l11.26,12.261V14.092h1.594V29.908L284.07,17.627v11.74h-1.594Z" transform="translate(-213.325 -13.591)" fill="#fff"/>
    <path id="Path_75" data-name="Path 75" d="M345.308,30.378a8.148,8.148,0,0,1-3.1-.592,7.836,7.836,0,0,1-4.23-10.294,7.866,7.866,0,0,1,1.7-2.5,8.085,8.085,0,0,1,2.508-1.686,7.639,7.639,0,0,1,3.065-.618,7.959,7.959,0,0,1,3.77.884,7.69,7.69,0,0,1,2.779,2.488l-1.2.838a6.867,6.867,0,0,0-2.186-2.079,6.638,6.638,0,0,0-5.665-.24,6.2,6.2,0,0,0-2,1.41,6.459,6.459,0,0,0-1.308,2.074,6.931,6.931,0,0,0-.01,4.991,6.24,6.24,0,0,0,1.3,2.049,6.31,6.31,0,0,0,1.987,1.4,6.054,6.054,0,0,0,2.529.521,8.23,8.23,0,0,0,3.193-.541,4.1,4.1,0,0,0,1.814-1.3V23.941h-4.026V22.582h5.609V27.6a4.107,4.107,0,0,1-.9,1.027,6.277,6.277,0,0,1-1.426.889,9.472,9.472,0,0,1-1.885.623A10.451,10.451,0,0,1,345.308,30.378Z" transform="translate(-253.853 -14.398)" fill="#fff"/>
    <path id="Path_76" data-name="Path 76" d="M19.7,109.591l11.26,12.261v-11.76h1.594v15.816L21.3,113.627v11.74H19.7Z" transform="translate(-19.283 -84.481)" fill="#fff"/>
    <path id="Path_77" data-name="Path 77" d="M76.773,125.421h9.41v1.359h-9.4Zm.01-13.916h9.4v1.359h-9.4Zm0,6.754h9.022v1.369H76.783Z" transform="translate(-61.427 -85.894)" fill="#fff"/>
    <path id="Path_78" data-name="Path 78" d="M121.458,126.378a6.918,6.918,0,0,1-2.779-.562,5.872,5.872,0,0,1-2.258-1.757l1.144-.96a5.042,5.042,0,0,0,1.691,1.41,4.768,4.768,0,0,0,2.243.531,3.544,3.544,0,0,0,1.333-.24,3.075,3.075,0,0,0,1.016-.649,2.865,2.865,0,0,0,.649-.96,3.049,3.049,0,0,0,.23-1.185,2.286,2.286,0,0,0-.21-1.012,2.666,2.666,0,0,0-.557-.761,3.486,3.486,0,0,0-.828-.577q-.48-.245-1-.449l-1.8-.695a9.4,9.4,0,0,1-1.216-.572,4.2,4.2,0,0,1-1.022-.8,3.735,3.735,0,0,1-.7-1.088,3.663,3.663,0,0,1-.266-1.456,3.486,3.486,0,0,1,.347-1.543,3.862,3.862,0,0,1,.945-1.236,4.589,4.589,0,0,1,1.41-.828,4.955,4.955,0,0,1,1.763-.307,5.8,5.8,0,0,1,2.268.388,6.448,6.448,0,0,1,1.706,1.083l-.96,1.1a4.566,4.566,0,0,0-1.333-.894,4.205,4.205,0,0,0-1.681-.312,3.3,3.3,0,0,0-1.124.184,2.712,2.712,0,0,0-.9.531,2.549,2.549,0,0,0-.608.807,2.292,2.292,0,0,0-.22,1,1.992,1.992,0,0,0,.189.894,2.38,2.38,0,0,0,.5.68,3.38,3.38,0,0,0,.741.526,7.919,7.919,0,0,0,.909.414l1.737.695a11.159,11.159,0,0,1,1.3.613,4.978,4.978,0,0,1,1.119.838,3.721,3.721,0,0,1,.782,1.16,3.964,3.964,0,0,1,.291,1.589,4.058,4.058,0,0,1-.373,1.732,4.343,4.343,0,0,1-1.032,1.4,4.745,4.745,0,0,1-1.548.93A5.386,5.386,0,0,1,121.458,126.378Z" transform="translate(-90.704 -85.288)" fill="#fff"/>
    <path id="Path_79" data-name="Path 79" d="M162.435,126.378a6.918,6.918,0,0,1-2.779-.562,5.873,5.873,0,0,1-2.258-1.757l1.144-.96a5.04,5.04,0,0,0,1.691,1.41,4.769,4.769,0,0,0,2.243.531,3.541,3.541,0,0,0,1.333-.24,3.073,3.073,0,0,0,1.017-.649,2.87,2.87,0,0,0,.649-.96,3.054,3.054,0,0,0,.23-1.185,2.286,2.286,0,0,0-.209-1.012,2.671,2.671,0,0,0-.557-.761,3.492,3.492,0,0,0-.828-.577q-.481-.245-1-.449l-1.8-.695a9.392,9.392,0,0,1-1.216-.572,4.2,4.2,0,0,1-1.022-.8,3.729,3.729,0,0,1-.7-1.088,3.663,3.663,0,0,1-.266-1.456,3.482,3.482,0,0,1,.347-1.543,3.865,3.865,0,0,1,.945-1.236,4.594,4.594,0,0,1,1.41-.828,4.953,4.953,0,0,1,1.762-.307,5.8,5.8,0,0,1,2.268.388,6.45,6.45,0,0,1,1.706,1.083l-.96,1.1a4.569,4.569,0,0,0-1.333-.894,4.207,4.207,0,0,0-1.681-.312,3.3,3.3,0,0,0-1.124.184,2.711,2.711,0,0,0-.9.531,2.546,2.546,0,0,0-.608.807,2.289,2.289,0,0,0-.22,1,2,2,0,0,0,.189.894,2.385,2.385,0,0,0,.5.68,3.374,3.374,0,0,0,.741.526,7.917,7.917,0,0,0,.909.414l1.737.695a11.156,11.156,0,0,1,1.3.613,4.974,4.974,0,0,1,1.119.838A3.721,3.721,0,0,1,167,120.4a3.964,3.964,0,0,1,.291,1.589,4.055,4.055,0,0,1-.373,1.732,4.342,4.342,0,0,1-1.032,1.4,4.748,4.748,0,0,1-1.548.93A5.388,5.388,0,0,1,162.435,126.378Z" transform="translate(-120.963 -85.288)" fill="#fff"/>
  </g>
  <g id="Group_155" data-name="Group 155">
    <path id="Path_80" data-name="Path 80" d="M25.406,16.074a5.776,5.776,0,0,0-1.952.511A6.213,6.213,0,0,0,21.462,18a6.56,6.56,0,0,0-1.3,2.074,6.677,6.677,0,0,0-.47,2.483,6.609,6.609,0,0,0,.47,2.488,6.474,6.474,0,0,0,1.3,2.049,6.179,6.179,0,0,0,1.982,1.4,6.026,6.026,0,0,0,1.962.5v1.359a8.017,8.017,0,0,1-2.493-.572,7.664,7.664,0,0,1-2.508-1.65,7.853,7.853,0,0,1-1.686-2.483,7.681,7.681,0,0,1-.618-3.091,7.576,7.576,0,0,1,.628-3.07,8.1,8.1,0,0,1,1.7-2.5A8,8,0,0,1,22.934,15.3a7.644,7.644,0,0,1,2.473-.592Zm.807,12.945a6.369,6.369,0,0,0,2.35-.5,5.925,5.925,0,0,0,1.982-1.379,6.2,6.2,0,0,0,1.277-2.049,6.937,6.937,0,0,0,.449-2.508A7.251,7.251,0,0,0,31.823,20a6.248,6.248,0,0,0-1.267-2.069,5.823,5.823,0,0,0-1.972-1.379,6.484,6.484,0,0,0-2.371-.5V14.684a8.172,8.172,0,0,1,2.9.593,7.576,7.576,0,0,1,4.153,4.153,8.357,8.357,0,0,1-.01,6.233,7.772,7.772,0,0,1-1.665,2.493A7.452,7.452,0,0,1,29.1,29.8a8.28,8.28,0,0,1-2.892.582Z" transform="translate(-18.101 -14.398)" fill="#fff"/>
    <path id="Path_81" data-name="Path 81" d="M84.741,13.591,96,25.852V14.092h1.594V29.908L86.335,17.627v11.74H84.741Z" transform="translate(-67.31 -13.591)" fill="#fff"/>
    <path id="Path_82" data-name="Path 82" d="M147.573,30.378a8.147,8.147,0,0,1-3.1-.592,7.836,7.836,0,0,1-4.23-10.294,7.866,7.866,0,0,1,1.7-2.5,8.086,8.086,0,0,1,2.508-1.686,7.639,7.639,0,0,1,3.065-.618,7.959,7.959,0,0,1,3.77.884,7.691,7.691,0,0,1,2.779,2.488l-1.2.838a6.867,6.867,0,0,0-2.186-2.079,6.638,6.638,0,0,0-5.665-.24,6.206,6.206,0,0,0-2,1.41,6.458,6.458,0,0,0-1.308,2.074,6.93,6.93,0,0,0-.01,4.991A6.24,6.24,0,0,0,143,27.1a6.314,6.314,0,0,0,1.987,1.4,6.054,6.054,0,0,0,2.529.521,8.229,8.229,0,0,0,3.193-.541,4.094,4.094,0,0,0,1.814-1.3V23.941h-4.026V22.582H154.1V27.6a4.106,4.106,0,0,1-.9,1.027,6.276,6.276,0,0,1-1.426.889,9.472,9.472,0,0,1-1.885.623A10.45,10.45,0,0,1,147.573,30.378Z" transform="translate(-107.838 -14.398)" fill="#fff"/>
    <path id="Path_83" data-name="Path 83" d="M209.078,16.074a5.774,5.774,0,0,0-1.952.511A6.213,6.213,0,0,0,205.134,18a6.56,6.56,0,0,0-1.3,2.074,6.676,6.676,0,0,0-.47,2.483,6.609,6.609,0,0,0,.47,2.488,6.474,6.474,0,0,0,1.3,2.049,6.179,6.179,0,0,0,1.982,1.4,6.026,6.026,0,0,0,1.962.5v1.359a8.017,8.017,0,0,1-2.493-.572,7.664,7.664,0,0,1-2.508-1.65,7.853,7.853,0,0,1-1.686-2.483,7.681,7.681,0,0,1-.618-3.091,7.572,7.572,0,0,1,.628-3.07,8.1,8.1,0,0,1,1.7-2.5,8,8,0,0,1,2.508-1.691,7.644,7.644,0,0,1,2.473-.592Zm.807,12.945a6.37,6.37,0,0,0,2.35-.5,5.925,5.925,0,0,0,1.982-1.379,6.2,6.2,0,0,0,1.277-2.049,6.937,6.937,0,0,0,.449-2.508,7.251,7.251,0,0,0-.449-2.58,6.247,6.247,0,0,0-1.267-2.069,5.824,5.824,0,0,0-1.972-1.379,6.484,6.484,0,0,0-2.371-.5V14.684a8.173,8.173,0,0,1,2.9.593,7.576,7.576,0,0,1,4.153,4.153,8.357,8.357,0,0,1-.01,6.233,7.773,7.773,0,0,1-1.665,2.493,7.455,7.455,0,0,1-2.488,1.64,8.281,8.281,0,0,1-2.892.582Z" transform="translate(-153.731 -14.398)" fill="#fff"/>
    <path id="Path_84" data-name="Path 84" d="M268.414,15.5h1.594V30.78h-1.594Z" transform="translate(-202.941 -15.004)" fill="#fff"/>
    <path id="Path_85" data-name="Path 85" d="M282.476,13.591l11.26,12.261V14.092h1.594V29.908L284.07,17.627v11.74h-1.594Z" transform="translate(-213.325 -13.591)" fill="#fff"/>
    <path id="Path_86" data-name="Path 86" d="M345.308,30.378a8.148,8.148,0,0,1-3.1-.592,7.836,7.836,0,0,1-4.23-10.294,7.866,7.866,0,0,1,1.7-2.5,8.085,8.085,0,0,1,2.508-1.686,7.639,7.639,0,0,1,3.065-.618,7.959,7.959,0,0,1,3.77.884,7.69,7.69,0,0,1,2.779,2.488l-1.2.838a6.867,6.867,0,0,0-2.186-2.079,6.638,6.638,0,0,0-5.665-.24,6.2,6.2,0,0,0-2,1.41,6.459,6.459,0,0,0-1.308,2.074,6.931,6.931,0,0,0-.01,4.991,6.24,6.24,0,0,0,1.3,2.049,6.31,6.31,0,0,0,1.987,1.4,6.054,6.054,0,0,0,2.529.521,8.23,8.23,0,0,0,3.193-.541,4.1,4.1,0,0,0,1.814-1.3V23.941h-4.026V22.582h5.609V27.6a4.107,4.107,0,0,1-.9,1.027,6.277,6.277,0,0,1-1.426.889,9.472,9.472,0,0,1-1.885.623A10.451,10.451,0,0,1,345.308,30.378Z" transform="translate(-253.853 -14.398)" fill="#fff"/>
    <path id="Path_87" data-name="Path 87" d="M19.7,109.591l11.26,12.261v-11.76h1.594v15.816L21.3,113.627v11.74H19.7Z" transform="translate(-19.283 -84.481)" fill="#fff"/>
    <path id="Path_88" data-name="Path 88" d="M76.773,125.421h9.41v1.359h-9.4Zm.01-13.916h9.4v1.359h-9.4Zm0,6.754h9.022v1.369H76.783Z" transform="translate(-61.427 -85.894)" fill="#fff"/>
    <path id="Path_89" data-name="Path 89" d="M121.458,126.378a6.918,6.918,0,0,1-2.779-.562,5.872,5.872,0,0,1-2.258-1.757l1.144-.96a5.042,5.042,0,0,0,1.691,1.41,4.768,4.768,0,0,0,2.243.531,3.544,3.544,0,0,0,1.333-.24,3.075,3.075,0,0,0,1.016-.649,2.865,2.865,0,0,0,.649-.96,3.049,3.049,0,0,0,.23-1.185,2.286,2.286,0,0,0-.21-1.012,2.666,2.666,0,0,0-.557-.761,3.486,3.486,0,0,0-.828-.577q-.48-.245-1-.449l-1.8-.695a9.4,9.4,0,0,1-1.216-.572,4.2,4.2,0,0,1-1.022-.8,3.735,3.735,0,0,1-.7-1.088,3.663,3.663,0,0,1-.266-1.456,3.486,3.486,0,0,1,.347-1.543,3.862,3.862,0,0,1,.945-1.236,4.589,4.589,0,0,1,1.41-.828,4.955,4.955,0,0,1,1.763-.307,5.8,5.8,0,0,1,2.268.388,6.448,6.448,0,0,1,1.706,1.083l-.96,1.1a4.566,4.566,0,0,0-1.333-.894,4.205,4.205,0,0,0-1.681-.312,3.3,3.3,0,0,0-1.124.184,2.712,2.712,0,0,0-.9.531,2.549,2.549,0,0,0-.608.807,2.292,2.292,0,0,0-.22,1,1.992,1.992,0,0,0,.189.894,2.38,2.38,0,0,0,.5.68,3.38,3.38,0,0,0,.741.526,7.919,7.919,0,0,0,.909.414l1.737.695a11.159,11.159,0,0,1,1.3.613,4.978,4.978,0,0,1,1.119.838,3.721,3.721,0,0,1,.782,1.16,3.964,3.964,0,0,1,.291,1.589,4.058,4.058,0,0,1-.373,1.732,4.343,4.343,0,0,1-1.032,1.4,4.745,4.745,0,0,1-1.548.93A5.386,5.386,0,0,1,121.458,126.378Z" transform="translate(-90.704 -85.288)" fill="#fff"/>
    <path id="Path_90" data-name="Path 90" d="M162.435,126.378a6.918,6.918,0,0,1-2.779-.562,5.873,5.873,0,0,1-2.258-1.757l1.144-.96a5.04,5.04,0,0,0,1.691,1.41,4.769,4.769,0,0,0,2.243.531,3.541,3.541,0,0,0,1.333-.24,3.073,3.073,0,0,0,1.017-.649,2.87,2.87,0,0,0,.649-.96,3.054,3.054,0,0,0,.23-1.185,2.286,2.286,0,0,0-.209-1.012,2.671,2.671,0,0,0-.557-.761,3.492,3.492,0,0,0-.828-.577q-.481-.245-1-.449l-1.8-.695a9.392,9.392,0,0,1-1.216-.572,4.2,4.2,0,0,1-1.022-.8,3.729,3.729,0,0,1-.7-1.088,3.663,3.663,0,0,1-.266-1.456,3.482,3.482,0,0,1,.347-1.543,3.865,3.865,0,0,1,.945-1.236,4.594,4.594,0,0,1,1.41-.828,4.953,4.953,0,0,1,1.762-.307,5.8,5.8,0,0,1,2.268.388,6.45,6.45,0,0,1,1.706,1.083l-.96,1.1a4.569,4.569,0,0,0-1.333-.894,4.207,4.207,0,0,0-1.681-.312,3.3,3.3,0,0,0-1.124.184,2.711,2.711,0,0,0-.9.531,2.546,2.546,0,0,0-.608.807,2.289,2.289,0,0,0-.22,1,2,2,0,0,0,.189.894,2.385,2.385,0,0,0,.5.68,3.374,3.374,0,0,0,.741.526,7.917,7.917,0,0,0,.909.414l1.737.695a11.156,11.156,0,0,1,1.3.613,4.974,4.974,0,0,1,1.119.838A3.721,3.721,0,0,1,167,120.4a3.964,3.964,0,0,1,.291,1.589,4.055,4.055,0,0,1-.373,1.732,4.342,4.342,0,0,1-1.032,1.4,4.748,4.748,0,0,1-1.548.93A5.388,5.388,0,0,1,162.435,126.378Z" transform="translate(-120.963 -85.288)" fill="#fff"/>
  </g>
  <g id="Group_156" data-name="Group 156">
    <path id="Path_91" data-name="Path 91" d="M25.406,16.074a5.776,5.776,0,0,0-1.952.511A6.213,6.213,0,0,0,21.462,18a6.56,6.56,0,0,0-1.3,2.074,6.677,6.677,0,0,0-.47,2.483,6.609,6.609,0,0,0,.47,2.488,6.474,6.474,0,0,0,1.3,2.049,6.179,6.179,0,0,0,1.982,1.4,6.026,6.026,0,0,0,1.962.5v1.359a8.017,8.017,0,0,1-2.493-.572,7.664,7.664,0,0,1-2.508-1.65,7.853,7.853,0,0,1-1.686-2.483,7.681,7.681,0,0,1-.618-3.091,7.576,7.576,0,0,1,.628-3.07,8.1,8.1,0,0,1,1.7-2.5A8,8,0,0,1,22.934,15.3a7.644,7.644,0,0,1,2.473-.592Zm.807,12.945a6.369,6.369,0,0,0,2.35-.5,5.925,5.925,0,0,0,1.982-1.379,6.2,6.2,0,0,0,1.277-2.049,6.937,6.937,0,0,0,.449-2.508A7.251,7.251,0,0,0,31.823,20a6.248,6.248,0,0,0-1.267-2.069,5.823,5.823,0,0,0-1.972-1.379,6.484,6.484,0,0,0-2.371-.5V14.684a8.172,8.172,0,0,1,2.9.593,7.576,7.576,0,0,1,4.153,4.153,8.357,8.357,0,0,1-.01,6.233,7.772,7.772,0,0,1-1.665,2.493A7.452,7.452,0,0,1,29.1,29.8a8.28,8.28,0,0,1-2.892.582Z" transform="translate(-18.101 -14.398)" fill="#fff"/>
    <path id="Path_92" data-name="Path 92" d="M84.741,13.591,96,25.852V14.092h1.594V29.908L86.335,17.627v11.74H84.741Z" transform="translate(-67.31 -13.591)" fill="#fff"/>
    <path id="Path_93" data-name="Path 93" d="M147.573,30.378a8.147,8.147,0,0,1-3.1-.592,7.836,7.836,0,0,1-4.23-10.294,7.866,7.866,0,0,1,1.7-2.5,8.086,8.086,0,0,1,2.508-1.686,7.639,7.639,0,0,1,3.065-.618,7.959,7.959,0,0,1,3.77.884,7.691,7.691,0,0,1,2.779,2.488l-1.2.838a6.867,6.867,0,0,0-2.186-2.079,6.638,6.638,0,0,0-5.665-.24,6.206,6.206,0,0,0-2,1.41,6.458,6.458,0,0,0-1.308,2.074,6.93,6.93,0,0,0-.01,4.991A6.24,6.24,0,0,0,143,27.1a6.314,6.314,0,0,0,1.987,1.4,6.054,6.054,0,0,0,2.529.521,8.229,8.229,0,0,0,3.193-.541,4.094,4.094,0,0,0,1.814-1.3V23.941h-4.026V22.582H154.1V27.6a4.106,4.106,0,0,1-.9,1.027,6.276,6.276,0,0,1-1.426.889,9.472,9.472,0,0,1-1.885.623A10.45,10.45,0,0,1,147.573,30.378Z" transform="translate(-107.838 -14.398)" fill="#fff"/>
    <path id="Path_94" data-name="Path 94" d="M209.078,16.074a5.774,5.774,0,0,0-1.952.511A6.213,6.213,0,0,0,205.134,18a6.56,6.56,0,0,0-1.3,2.074,6.676,6.676,0,0,0-.47,2.483,6.609,6.609,0,0,0,.47,2.488,6.474,6.474,0,0,0,1.3,2.049,6.179,6.179,0,0,0,1.982,1.4,6.026,6.026,0,0,0,1.962.5v1.359a8.017,8.017,0,0,1-2.493-.572,7.664,7.664,0,0,1-2.508-1.65,7.853,7.853,0,0,1-1.686-2.483,7.681,7.681,0,0,1-.618-3.091,7.572,7.572,0,0,1,.628-3.07,8.1,8.1,0,0,1,1.7-2.5,8,8,0,0,1,2.508-1.691,7.644,7.644,0,0,1,2.473-.592Zm.807,12.945a6.37,6.37,0,0,0,2.35-.5,5.925,5.925,0,0,0,1.982-1.379,6.2,6.2,0,0,0,1.277-2.049,6.937,6.937,0,0,0,.449-2.508,7.251,7.251,0,0,0-.449-2.58,6.247,6.247,0,0,0-1.267-2.069,5.824,5.824,0,0,0-1.972-1.379,6.484,6.484,0,0,0-2.371-.5V14.684a8.173,8.173,0,0,1,2.9.593,7.576,7.576,0,0,1,4.153,4.153,8.357,8.357,0,0,1-.01,6.233,7.773,7.773,0,0,1-1.665,2.493,7.455,7.455,0,0,1-2.488,1.64,8.281,8.281,0,0,1-2.892.582Z" transform="translate(-153.731 -14.398)" fill="#fff"/>
    <path id="Path_95" data-name="Path 95" d="M268.414,15.5h1.594V30.78h-1.594Z" transform="translate(-202.941 -15.004)" fill="#fff"/>
    <path id="Path_96" data-name="Path 96" d="M282.476,13.591l11.26,12.261V14.092h1.594V29.908L284.07,17.627v11.74h-1.594Z" transform="translate(-213.325 -13.591)" fill="#fff"/>
    <path id="Path_97" data-name="Path 97" d="M345.308,30.378a8.148,8.148,0,0,1-3.1-.592,7.836,7.836,0,0,1-4.23-10.294,7.866,7.866,0,0,1,1.7-2.5,8.085,8.085,0,0,1,2.508-1.686,7.639,7.639,0,0,1,3.065-.618,7.959,7.959,0,0,1,3.77.884,7.69,7.69,0,0,1,2.779,2.488l-1.2.838a6.867,6.867,0,0,0-2.186-2.079,6.638,6.638,0,0,0-5.665-.24,6.2,6.2,0,0,0-2,1.41,6.459,6.459,0,0,0-1.308,2.074,6.931,6.931,0,0,0-.01,4.991,6.24,6.24,0,0,0,1.3,2.049,6.31,6.31,0,0,0,1.987,1.4,6.054,6.054,0,0,0,2.529.521,8.23,8.23,0,0,0,3.193-.541,4.1,4.1,0,0,0,1.814-1.3V23.941h-4.026V22.582h5.609V27.6a4.107,4.107,0,0,1-.9,1.027,6.277,6.277,0,0,1-1.426.889,9.472,9.472,0,0,1-1.885.623A10.451,10.451,0,0,1,345.308,30.378Z" transform="translate(-253.853 -14.398)" fill="#fff"/>
    <path id="Path_98" data-name="Path 98" d="M19.7,109.591l11.26,12.261v-11.76h1.594v15.816L21.3,113.627v11.74H19.7Z" transform="translate(-19.283 -84.481)" fill="#fff"/>
    <path id="Path_99" data-name="Path 99" d="M76.773,125.421h9.41v1.359h-9.4Zm.01-13.916h9.4v1.359h-9.4Zm0,6.754h9.022v1.369H76.783Z" transform="translate(-61.427 -85.894)" fill="#fff"/>
    <path id="Path_100" data-name="Path 100" d="M121.458,126.378a6.918,6.918,0,0,1-2.779-.562,5.872,5.872,0,0,1-2.258-1.757l1.144-.96a5.042,5.042,0,0,0,1.691,1.41,4.768,4.768,0,0,0,2.243.531,3.544,3.544,0,0,0,1.333-.24,3.075,3.075,0,0,0,1.016-.649,2.865,2.865,0,0,0,.649-.96,3.049,3.049,0,0,0,.23-1.185,2.286,2.286,0,0,0-.21-1.012,2.666,2.666,0,0,0-.557-.761,3.486,3.486,0,0,0-.828-.577q-.48-.245-1-.449l-1.8-.695a9.4,9.4,0,0,1-1.216-.572,4.2,4.2,0,0,1-1.022-.8,3.735,3.735,0,0,1-.7-1.088,3.663,3.663,0,0,1-.266-1.456,3.486,3.486,0,0,1,.347-1.543,3.862,3.862,0,0,1,.945-1.236,4.589,4.589,0,0,1,1.41-.828,4.955,4.955,0,0,1,1.763-.307,5.8,5.8,0,0,1,2.268.388,6.448,6.448,0,0,1,1.706,1.083l-.96,1.1a4.566,4.566,0,0,0-1.333-.894,4.205,4.205,0,0,0-1.681-.312,3.3,3.3,0,0,0-1.124.184,2.712,2.712,0,0,0-.9.531,2.549,2.549,0,0,0-.608.807,2.292,2.292,0,0,0-.22,1,1.992,1.992,0,0,0,.189.894,2.38,2.38,0,0,0,.5.68,3.38,3.38,0,0,0,.741.526,7.919,7.919,0,0,0,.909.414l1.737.695a11.159,11.159,0,0,1,1.3.613,4.978,4.978,0,0,1,1.119.838,3.721,3.721,0,0,1,.782,1.16,3.964,3.964,0,0,1,.291,1.589,4.058,4.058,0,0,1-.373,1.732,4.343,4.343,0,0,1-1.032,1.4,4.745,4.745,0,0,1-1.548.93A5.386,5.386,0,0,1,121.458,126.378Z" transform="translate(-90.704 -85.288)" fill="#fff"/>
    <path id="Path_101" data-name="Path 101" d="M162.435,126.378a6.918,6.918,0,0,1-2.779-.562,5.873,5.873,0,0,1-2.258-1.757l1.144-.96a5.04,5.04,0,0,0,1.691,1.41,4.769,4.769,0,0,0,2.243.531,3.541,3.541,0,0,0,1.333-.24,3.073,3.073,0,0,0,1.017-.649,2.87,2.87,0,0,0,.649-.96,3.054,3.054,0,0,0,.23-1.185,2.286,2.286,0,0,0-.209-1.012,2.671,2.671,0,0,0-.557-.761,3.492,3.492,0,0,0-.828-.577q-.481-.245-1-.449l-1.8-.695a9.392,9.392,0,0,1-1.216-.572,4.2,4.2,0,0,1-1.022-.8,3.729,3.729,0,0,1-.7-1.088,3.663,3.663,0,0,1-.266-1.456,3.482,3.482,0,0,1,.347-1.543,3.865,3.865,0,0,1,.945-1.236,4.594,4.594,0,0,1,1.41-.828,4.953,4.953,0,0,1,1.762-.307,5.8,5.8,0,0,1,2.268.388,6.45,6.45,0,0,1,1.706,1.083l-.96,1.1a4.569,4.569,0,0,0-1.333-.894,4.207,4.207,0,0,0-1.681-.312,3.3,3.3,0,0,0-1.124.184,2.711,2.711,0,0,0-.9.531,2.546,2.546,0,0,0-.608.807,2.289,2.289,0,0,0-.22,1,2,2,0,0,0,.189.894,2.385,2.385,0,0,0,.5.68,3.374,3.374,0,0,0,.741.526,7.917,7.917,0,0,0,.909.414l1.737.695a11.156,11.156,0,0,1,1.3.613,4.974,4.974,0,0,1,1.119.838A3.721,3.721,0,0,1,167,120.4a3.964,3.964,0,0,1,.291,1.589,4.055,4.055,0,0,1-.373,1.732,4.342,4.342,0,0,1-1.032,1.4,4.748,4.748,0,0,1-1.548.93A5.388,5.388,0,0,1,162.435,126.378Z" transform="translate(-120.963 -85.288)" fill="#fff"/>
  </g>
  <g id="Group_157" data-name="Group 157">
    <path id="Path_102" data-name="Path 102" d="M25.406,16.074a5.776,5.776,0,0,0-1.952.511A6.213,6.213,0,0,0,21.462,18a6.56,6.56,0,0,0-1.3,2.074,6.677,6.677,0,0,0-.47,2.483,6.609,6.609,0,0,0,.47,2.488,6.474,6.474,0,0,0,1.3,2.049,6.179,6.179,0,0,0,1.982,1.4,6.026,6.026,0,0,0,1.962.5v1.359a8.017,8.017,0,0,1-2.493-.572,7.664,7.664,0,0,1-2.508-1.65,7.853,7.853,0,0,1-1.686-2.483,7.681,7.681,0,0,1-.618-3.091,7.576,7.576,0,0,1,.628-3.07,8.1,8.1,0,0,1,1.7-2.5A8,8,0,0,1,22.934,15.3a7.644,7.644,0,0,1,2.473-.592Zm.807,12.945a6.369,6.369,0,0,0,2.35-.5,5.925,5.925,0,0,0,1.982-1.379,6.2,6.2,0,0,0,1.277-2.049,6.937,6.937,0,0,0,.449-2.508A7.251,7.251,0,0,0,31.823,20a6.248,6.248,0,0,0-1.267-2.069,5.823,5.823,0,0,0-1.972-1.379,6.484,6.484,0,0,0-2.371-.5V14.684a8.172,8.172,0,0,1,2.9.593,7.576,7.576,0,0,1,4.153,4.153,8.357,8.357,0,0,1-.01,6.233,7.772,7.772,0,0,1-1.665,2.493A7.452,7.452,0,0,1,29.1,29.8a8.28,8.28,0,0,1-2.892.582Z" transform="translate(-18.101 -14.398)" fill="#fff"/>
    <path id="Path_103" data-name="Path 103" d="M84.741,13.591,96,25.852V14.092h1.594V29.908L86.335,17.627v11.74H84.741Z" transform="translate(-67.31 -13.591)" fill="#fff"/>
    <path id="Path_104" data-name="Path 104" d="M147.573,30.378a8.147,8.147,0,0,1-3.1-.592,7.836,7.836,0,0,1-4.23-10.294,7.866,7.866,0,0,1,1.7-2.5,8.086,8.086,0,0,1,2.508-1.686,7.639,7.639,0,0,1,3.065-.618,7.959,7.959,0,0,1,3.77.884,7.691,7.691,0,0,1,2.779,2.488l-1.2.838a6.867,6.867,0,0,0-2.186-2.079,6.638,6.638,0,0,0-5.665-.24,6.206,6.206,0,0,0-2,1.41,6.458,6.458,0,0,0-1.308,2.074,6.93,6.93,0,0,0-.01,4.991A6.24,6.24,0,0,0,143,27.1a6.314,6.314,0,0,0,1.987,1.4,6.054,6.054,0,0,0,2.529.521,8.229,8.229,0,0,0,3.193-.541,4.094,4.094,0,0,0,1.814-1.3V23.941h-4.026V22.582H154.1V27.6a4.106,4.106,0,0,1-.9,1.027,6.276,6.276,0,0,1-1.426.889,9.472,9.472,0,0,1-1.885.623A10.45,10.45,0,0,1,147.573,30.378Z" transform="translate(-107.838 -14.398)" fill="#fff"/>
    <path id="Path_105" data-name="Path 105" d="M209.078,16.074a5.774,5.774,0,0,0-1.952.511A6.213,6.213,0,0,0,205.134,18a6.56,6.56,0,0,0-1.3,2.074,6.676,6.676,0,0,0-.47,2.483,6.609,6.609,0,0,0,.47,2.488,6.474,6.474,0,0,0,1.3,2.049,6.179,6.179,0,0,0,1.982,1.4,6.026,6.026,0,0,0,1.962.5v1.359a8.017,8.017,0,0,1-2.493-.572,7.664,7.664,0,0,1-2.508-1.65,7.853,7.853,0,0,1-1.686-2.483,7.681,7.681,0,0,1-.618-3.091,7.572,7.572,0,0,1,.628-3.07,8.1,8.1,0,0,1,1.7-2.5,8,8,0,0,1,2.508-1.691,7.644,7.644,0,0,1,2.473-.592Zm.807,12.945a6.37,6.37,0,0,0,2.35-.5,5.925,5.925,0,0,0,1.982-1.379,6.2,6.2,0,0,0,1.277-2.049,6.937,6.937,0,0,0,.449-2.508,7.251,7.251,0,0,0-.449-2.58,6.247,6.247,0,0,0-1.267-2.069,5.824,5.824,0,0,0-1.972-1.379,6.484,6.484,0,0,0-2.371-.5V14.684a8.173,8.173,0,0,1,2.9.593,7.576,7.576,0,0,1,4.153,4.153,8.357,8.357,0,0,1-.01,6.233,7.773,7.773,0,0,1-1.665,2.493,7.455,7.455,0,0,1-2.488,1.64,8.281,8.281,0,0,1-2.892.582Z" transform="translate(-153.731 -14.398)" fill="#fff"/>
    <path id="Path_106" data-name="Path 106" d="M268.414,15.5h1.594V30.78h-1.594Z" transform="translate(-202.941 -15.004)" fill="#fff"/>
    <path id="Path_107" data-name="Path 107" d="M282.476,13.591l11.26,12.261V14.092h1.594V29.908L284.07,17.627v11.74h-1.594Z" transform="translate(-213.325 -13.591)" fill="#fff"/>
    <path id="Path_108" data-name="Path 108" d="M345.308,30.378a8.148,8.148,0,0,1-3.1-.592,7.836,7.836,0,0,1-4.23-10.294,7.866,7.866,0,0,1,1.7-2.5,8.085,8.085,0,0,1,2.508-1.686,7.639,7.639,0,0,1,3.065-.618,7.959,7.959,0,0,1,3.77.884,7.69,7.69,0,0,1,2.779,2.488l-1.2.838a6.867,6.867,0,0,0-2.186-2.079,6.638,6.638,0,0,0-5.665-.24,6.2,6.2,0,0,0-2,1.41,6.459,6.459,0,0,0-1.308,2.074,6.931,6.931,0,0,0-.01,4.991,6.24,6.24,0,0,0,1.3,2.049,6.31,6.31,0,0,0,1.987,1.4,6.054,6.054,0,0,0,2.529.521,8.23,8.23,0,0,0,3.193-.541,4.1,4.1,0,0,0,1.814-1.3V23.941h-4.026V22.582h5.609V27.6a4.107,4.107,0,0,1-.9,1.027,6.277,6.277,0,0,1-1.426.889,9.472,9.472,0,0,1-1.885.623A10.451,10.451,0,0,1,345.308,30.378Z" transform="translate(-253.853 -14.398)" fill="#fff"/>
    <path id="Path_109" data-name="Path 109" d="M19.7,109.591l11.26,12.261v-11.76h1.594v15.816L21.3,113.627v11.74H19.7Z" transform="translate(-19.283 -84.481)" fill="#fff"/>
    <path id="Path_110" data-name="Path 110" d="M76.773,125.421h9.41v1.359h-9.4Zm.01-13.916h9.4v1.359h-9.4Zm0,6.754h9.022v1.369H76.783Z" transform="translate(-61.427 -85.894)" fill="#fff"/>
    <path id="Path_111" data-name="Path 111" d="M121.458,126.378a6.918,6.918,0,0,1-2.779-.562,5.872,5.872,0,0,1-2.258-1.757l1.144-.96a5.042,5.042,0,0,0,1.691,1.41,4.768,4.768,0,0,0,2.243.531,3.544,3.544,0,0,0,1.333-.24,3.075,3.075,0,0,0,1.016-.649,2.865,2.865,0,0,0,.649-.96,3.049,3.049,0,0,0,.23-1.185,2.286,2.286,0,0,0-.21-1.012,2.666,2.666,0,0,0-.557-.761,3.486,3.486,0,0,0-.828-.577q-.48-.245-1-.449l-1.8-.695a9.4,9.4,0,0,1-1.216-.572,4.2,4.2,0,0,1-1.022-.8,3.735,3.735,0,0,1-.7-1.088,3.663,3.663,0,0,1-.266-1.456,3.486,3.486,0,0,1,.347-1.543,3.862,3.862,0,0,1,.945-1.236,4.589,4.589,0,0,1,1.41-.828,4.955,4.955,0,0,1,1.763-.307,5.8,5.8,0,0,1,2.268.388,6.448,6.448,0,0,1,1.706,1.083l-.96,1.1a4.566,4.566,0,0,0-1.333-.894,4.205,4.205,0,0,0-1.681-.312,3.3,3.3,0,0,0-1.124.184,2.712,2.712,0,0,0-.9.531,2.549,2.549,0,0,0-.608.807,2.292,2.292,0,0,0-.22,1,1.992,1.992,0,0,0,.189.894,2.38,2.38,0,0,0,.5.68,3.38,3.38,0,0,0,.741.526,7.919,7.919,0,0,0,.909.414l1.737.695a11.159,11.159,0,0,1,1.3.613,4.978,4.978,0,0,1,1.119.838,3.721,3.721,0,0,1,.782,1.16,3.964,3.964,0,0,1,.291,1.589,4.058,4.058,0,0,1-.373,1.732,4.343,4.343,0,0,1-1.032,1.4,4.745,4.745,0,0,1-1.548.93A5.386,5.386,0,0,1,121.458,126.378Z" transform="translate(-90.704 -85.288)" fill="#fff"/>
    <path id="Path_112" data-name="Path 112" d="M162.435,126.378a6.918,6.918,0,0,1-2.779-.562,5.873,5.873,0,0,1-2.258-1.757l1.144-.96a5.04,5.04,0,0,0,1.691,1.41,4.769,4.769,0,0,0,2.243.531,3.541,3.541,0,0,0,1.333-.24,3.073,3.073,0,0,0,1.017-.649,2.87,2.87,0,0,0,.649-.96,3.054,3.054,0,0,0,.23-1.185,2.286,2.286,0,0,0-.209-1.012,2.671,2.671,0,0,0-.557-.761,3.492,3.492,0,0,0-.828-.577q-.481-.245-1-.449l-1.8-.695a9.392,9.392,0,0,1-1.216-.572,4.2,4.2,0,0,1-1.022-.8,3.729,3.729,0,0,1-.7-1.088,3.663,3.663,0,0,1-.266-1.456,3.482,3.482,0,0,1,.347-1.543,3.865,3.865,0,0,1,.945-1.236,4.594,4.594,0,0,1,1.41-.828,4.953,4.953,0,0,1,1.762-.307,5.8,5.8,0,0,1,2.268.388,6.45,6.45,0,0,1,1.706,1.083l-.96,1.1a4.569,4.569,0,0,0-1.333-.894,4.207,4.207,0,0,0-1.681-.312,3.3,3.3,0,0,0-1.124.184,2.711,2.711,0,0,0-.9.531,2.546,2.546,0,0,0-.608.807,2.289,2.289,0,0,0-.22,1,2,2,0,0,0,.189.894,2.385,2.385,0,0,0,.5.68,3.374,3.374,0,0,0,.741.526,7.917,7.917,0,0,0,.909.414l1.737.695a11.156,11.156,0,0,1,1.3.613,4.974,4.974,0,0,1,1.119.838A3.721,3.721,0,0,1,167,120.4a3.964,3.964,0,0,1,.291,1.589,4.055,4.055,0,0,1-.373,1.732,4.342,4.342,0,0,1-1.032,1.4,4.748,4.748,0,0,1-1.548.93A5.388,5.388,0,0,1,162.435,126.378Z" transform="translate(-120.963 -85.288)" fill="#fff"/>
  </g>
</svg>
