<svg xmlns="http://www.w3.org/2000/svg" width="54.03" height="53.42" viewBox="0 0 54.03 53.42">
  <title>edit</title>
  <path d="M52.76,7.26A14.16,14.16,0,0,1,51.5,5.89a15.37,15.37,0,0,0-2-2c-.47-.39-.91-.8-1.35-1.22C47.58,2.07,47,1.52,46.34,1A5,5,0,0,0,41.14.5a16.94,16.94,0,0,0-3.84,3c-.74.69-1.54,1.44-2.41,2.17a45.89,45.89,0,0,0-4.35,4.36c-.82.9-1.65,1.81-2.51,2.67s-1.49,1.56-2.2,2.35a26.51,26.51,0,0,1-3.74,3.68,27.72,27.72,0,0,0-4,3.89,36.2,36.2,0,0,1-2.56,2.67,37.85,37.85,0,0,0-2.65,2.77A29.24,29.24,0,0,1,10.05,31L10,31,6.13,34.55a1.42,1.42,0,0,0-.32.41,2.75,2.75,0,0,0-.25.79l.11,0a2.86,2.86,0,0,0,.07.28l-.29,0a5.46,5.46,0,0,0-.23.68,9.79,9.79,0,0,1-.34,1.19L3.07,43.64c-.26.74-.52,1.49-.77,2.25A38.51,38.51,0,0,1,.16,51.35a1.42,1.42,0,0,0,1.26,2.07,1.26,1.26,0,0,0,.47-.08c2.43-.85,7-2.43,10.81-3.72C19,47.48,19,47.48,19.21,47.2l2.42-2.51c1.59-1.72,3.26-3.38,4.93-5l1.77-1.76c2.64-2.65,5.38-5.39,8.1-7.92.89-.83,1.7-1.66,2.52-2.49S40.37,26,41.14,25.3c1.31-1.24,2.59-2.53,3.82-3.83,1.06-1.13,2.27-2.28,3.42-3.39,3-2.91,4.94-4.78,5.36-6.4S54.35,8.72,52.76,7.26ZM44.08,18.32c-.24-.25-.5-.49-.74-.74a28.86,28.86,0,0,0-3.06-2.85c-.79-.61-1.56-1.33-2.31-2-.36-.34-.72-.68-1.08-1s-1.44-1.41-2-2.08c.28-.28.56-.53.85-.8.92,1,2.11,2.15,2.13,2.16l1,1c.82.77,1.65,1.54,2.51,2.2a27.61,27.61,0,0,1,2.76,2.58l.76.77C44.62,17.77,44.36,18,44.08,18.32Zm-39.26,29a10.71,10.71,0,0,0,1.14,1,3.44,3.44,0,0,1,.5.45L4,49.6C4.3,48.83,4.56,48.05,4.82,47.28Zm7-.35-2.35.81c-.09-.11-.18-.18-.29-.3A12.3,12.3,0,0,0,7.65,46a12,12,0,0,1-1.78-1.84l1.7-5.36c.08-.24.15-.44.2-.64l.76.58.65.5c.79.63,4.46,4.22,6.55,6.31ZM39.19,23.24c-.79.75-1.53,1.5-2.26,2.24s-1.58,1.61-2.44,2.4c-2.75,2.57-5.51,5.33-8.17,8l-1.76,1.76c-1.7,1.69-3.39,3.38-5,5.11l-1.3,1.36c-2.06-2.1-6.34-6.27-7.32-7.05l-.7-.54c-.35-.27-.74-.56-1.1-.86l2.75-2.5A30.21,30.21,0,0,0,15,30a31.26,31.26,0,0,1,2.44-2.56c1-.93,1.9-1.92,2.76-2.88A25.75,25.75,0,0,1,23.8,21,29.62,29.62,0,0,0,28,17c.67-.75,1.34-1.5,2.07-2.23.9-.89,1.76-1.83,2.62-2.77l.25-.27c.93,1,2.09,2.1,2.1,2.12l1,1A32.52,32.52,0,0,0,38.56,17a26.41,26.41,0,0,1,2.75,2.58l.77.78C41.14,21.32,40.18,22.3,39.19,23.24ZM51,11c-.22.83-2.29,2.87-4,4.55-.26-.26-.52-.51-.78-.78a28.93,28.93,0,0,0-3.06-2.85c-.79-.61-1.55-1.32-2.3-2l-1.1-1c-.43-.39-1.33-1.29-1.94-2L39.23,5.6a16,16,0,0,1,3.11-2.53,2.17,2.17,0,0,1,2.23.16c.59.47,1.13,1,1.66,1.47s1,.89,1.46,1.31a13,13,0,0,1,1.64,1.71,17.05,17.05,0,0,0,1.51,1.63C51.3,9.77,51.3,9.77,51,11Z"/>
</svg>
