<svg xmlns="http://www.w3.org/2000/svg" width="81.76" height="60.28" viewBox="0 0 81.76 60.28">
  <title>photo</title>
  <g>
    <path d="M71.46,25.09A4,4,0,0,1,67.82,23a3.41,3.41,0,0,1,.61-3.75,4,4,0,0,1,3.06-1.35,3.42,3.42,0,0,1,2.21.75,3.92,3.92,0,0,1,1.36,3.92A3.35,3.35,0,0,1,72.4,25,4.29,4.29,0,0,1,71.46,25.09Zm.21-5.72a3,3,0,0,0-2.14.84c-.64.77-.83,1.46-.55,2a3.23,3.23,0,0,0,3.45,1.24,1.53,1.53,0,0,0,1.33-1.12,2.79,2.79,0,0,0-1-2.69A1.74,1.74,0,0,0,71.67,19.37Z"/>
    <path d="M40.63,51.67a21.72,21.72,0,0,1-7.11-1.21C28.78,48.85,26,45.65,24.73,40.4a20,20,0,0,1-.22-5.8c0-.7.09-1.38.09-2a.62.62,0,0,1,0-.19c.07-.37,1.84-9.12,8.76-11.81a18.63,18.63,0,0,1,12.34-.52,16.71,16.71,0,0,1,9.71,8.37A16.33,16.33,0,0,1,56.62,41C54.47,47.57,48.34,51.67,40.63,51.67Zm-14.2-19c0,.62-.05,1.3-.09,2A18.14,18.14,0,0,0,26.51,40c1.12,4.7,3.39,7.32,7.58,8.74a20,20,0,0,0,6.53,1.11c7,0,12.34-3.52,14.26-9.42A14.48,14.48,0,0,0,53.8,29.32a14.82,14.82,0,0,0-8.63-7.47A16.86,16.86,0,0,0,34,22.34C28.41,24.52,26.63,31.82,26.43,32.7Z"/>
    <path d="M22.69,10.44l-14.2,0H7.9c-1.58,0-3.75-.06-5.23,1.09C.81,12.93,0,14,0,17.79L.27,52.87C.2,55.28.63,57.05,1.6,58.29s2.62,2,4.87,2H74c5.15-.11,7.63-3,7.8-9.2l-.27-31.62c.13-3-.36-5.21-1.52-6.69s-3-2.2-5.48-2.2l-15.69,0,0-1.46c.13-3-.36-5.21-1.52-6.69S54.32.18,51.78.18L31.18,0h-.59C29,0,26.84,0,25.36,1.1c-1.85,1.44-2.67,2.47-2.67,6.3Zm34.58,1.67,13.48,0H74.1c2.2,0,3.72.58,4.64,1.77s1.33,3,1.22,5.7l.26,31.27c-.15,5.37-2.14,7.7-6.66,7.8H6.87c-1.91,0-3.23-.54-4-1.56a6.73,6.73,0,0,1-1-4.44L1.54,18c0-3.33.62-3.95,2.15-5.13,1.19-.93,3.15-.9,4.58-.88H9.86l14.37,0V7.6c0-3.33.62-3.95,2.15-5.13,1.2-.93,3.15-.9,4.58-.87h1.59L48,1.76h3.35c2.2,0,3.72.58,4.65,1.78s1.32,3,1.21,5.69l0,1.29Z"/>
  </g>
</svg>
