<?xml version="1.0" standalone="no"?>
<!DOCTYPE svg PUBLIC "-//W3C//DTD SVG 20010904//EN"
 "http://www.w3.org/TR/2001/REC-SVG-20010904/DTD/svg10.dtd">
<svg version="1.0" xmlns="http://www.w3.org/2000/svg"
 width="190.000000pt" height="190.000000pt" viewBox="0 0 190.000000 190.000000"
 preserveAspectRatio="xMidYMid meet">
<metadata>
Created by potrace 1.11, written by Peter Selinger 2001-2013
</metadata>
<g transform="translate(0.000000,190.000000) scale(0.100000,-0.100000)"
fill="#000000" stroke="none">
<path d="M520 1717 c-46 -24 -76 -69 -86 -127 -5 -29 -14 -39 -48 -55 -44 -22
-80 -73 -91 -133 -4 -20 -18 -45 -36 -60 -17 -13 -41 -46 -54 -73 -14 -26 -40
-59 -59 -74 -19 -14 -39 -38 -44 -53 -35 -89 -21 -154 43 -215 41 -38 45 -46
45 -89 0 -26 15 -97 34 -157 l33 -111 -22 -53 c-28 -71 -86 -164 -162 -264
-35 -46 -63 -85 -63 -87 0 -12 149 -16 240 -7 139 15 246 36 356 72 l91 30
259 -3 c258 -3 259 -4 322 -31 112 -50 227 -69 412 -70 235 -1 231 -5 123 106
-111 114 -163 184 -201 267 -27 59 -29 71 -22 125 4 33 15 78 23 100 18 46 21
124 7 173 -7 27 -4 46 15 99 30 79 31 114 4 173 -13 28 -22 73 -24 117 -4 73
-20 118 -49 142 -9 8 -16 22 -16 33 0 33 -38 96 -77 125 -31 24 -48 29 -113
31 -63 3 -84 0 -118 -17 -33 -17 -41 -18 -45 -6 -3 7 -27 26 -52 41 -58 34
-127 35 -203 5 -29 -11 -60 -21 -68 -21 -9 0 -48 15 -87 34 -125 60 -199 69
-267 33z m197 -74 l67 -27 -46 -15 c-83 -29 -109 -72 -88 -149 19 -72 112
-131 186 -118 l34 7 0 -40 c0 -31 -7 -49 -28 -73 l-29 -31 -70 55 c-84 67
-242 234 -249 264 -7 29 12 96 37 128 28 36 95 36 186 -1z m410 -47 l37 -34
-54 -23 c-30 -13 -105 -49 -166 -81 -130 -68 -162 -72 -205 -28 -23 23 -30 37
-27 61 3 29 7 32 98 64 52 18 120 42 150 53 83 32 123 29 167 -12z m286 -20
c50 -20 87 -89 67 -126 -5 -9 -54 -56 -109 -105 -91 -81 -118 -115 -92 -115
11 0 192 157 204 177 27 44 67 -19 67 -105 0 -64 -16 -97 -86 -174 -43 -49
-69 -97 -56 -110 6 -6 21 7 41 37 18 26 51 69 74 96 41 48 42 48 54 26 30 -54
9 -129 -72 -264 -27 -44 -9 -55 24 -14 l28 34 6 -44 c14 -105 -22 -169 -192
-340 -175 -176 -249 -206 -536 -219 -119 -5 -181 -12 -206 -23 -54 -24 -224
-65 -319 -76 -93 -12 -170 -14 -170 -5 0 3 20 33 44 67 50 70 123 215 132 261
3 21 -5 62 -24 121 -16 50 -32 111 -36 137 l-5 47 62 -30 c69 -32 90 -35 128
-15 23 12 31 10 89 -26 76 -45 141 -51 196 -18 32 21 74 90 74 124 0 10 11 27
25 38 51 40 88 137 75 195 -8 32 -5 47 17 91 21 43 25 62 21 108 l-5 56 131
63 c72 35 142 75 156 90 48 53 127 69 193 41z m-888 -157 c72 -87 170 -178
247 -230 45 -31 58 -46 63 -73 11 -54 -46 -146 -89 -146 -12 0 -87 67 -203
184 -160 161 -183 187 -183 215 0 57 48 121 90 121 9 0 43 -32 75 -71z m-47
-249 c73 -77 160 -160 192 -186 53 -41 60 -51 60 -81 0 -42 -46 -93 -82 -93
-14 0 -57 21 -96 46 -64 41 -71 48 -66 72 10 55 -32 111 -135 179 -52 35 -99
67 -104 72 -20 20 52 131 85 131 8 0 73 -63 146 -140z m-149 -87 c95 -66 124
-99 124 -142 0 -35 -27 -71 -54 -71 -31 0 -197 90 -223 121 -37 44 -36 101 4
140 34 35 26 37 149 -48z m1240 -619 c17 -32 65 -101 106 -152 l75 -92 -77 0
c-88 0 -190 13 -276 35 -60 15 -187 66 -186 75 0 3 24 20 54 39 29 19 97 78
151 132 l98 99 12 -38 c6 -21 25 -65 43 -98z"/>
</g>
</svg>
