<svg xmlns="http://www.w3.org/2000/svg" xmlns:xlink="http://www.w3.org/1999/xlink" width="451.56mm" height="282.22mm" viewBox="0 0 1280 800">
  <defs>
    <style>
      .a {
        fill: none;
      }

      .b {
        clip-path: url(#a);
      }

      .c {
        fill: #f8fafa;
      }

      .d {
        fill: #edf2f1;
      }

      .e {
        fill: url(#b);
      }
    </style>
    <clipPath id="a">
      <rect class="a" width="157.43" height="157.43"/>
    </clipPath>
    <pattern id="b" data-name="Nueva muestra de motivo 44" width="157.43" height="157.43" patternTransform="translate(123 -123)" patternUnits="userSpaceOnUse" viewBox="0 0 157.43 157.43">
      <rect class="a" width="157.43" height="157.43"/>
      <g class="b">
        <rect class="c" width="157.43" height="157.43"/>
        <g>
          <path class="d" d="M74,138.45c.56.2.89.41,1,.85a1,1,0,0,1-.55,1.1,3.57,3.57,0,0,1-1.23.37,20.83,20.83,0,0,1-2.09,0c-7.33,0-14.67-.06-22,0-3.14,0-6.28.18-9.42.28-.61,0-1.22.05-1.83,0A3,3,0,0,1,37,141a.74.74,0,0,1-.53-.68.72.72,0,0,1,.45-.74,4.38,4.38,0,0,1,1-.28c1.34-.2,2.67-.41,4-.56A130.09,130.09,0,0,1,56.56,138c4.27,0,8.55.14,12.82.21,1.14,0,2.27,0,3.41.08C73.26,138.33,73.74,138.41,74,138.45Z"/>
          <path class="d" d="M77.44,144.38c.64.24,1,.55,1.11,1.06a1.34,1.34,0,0,1-.52,1.4,2.09,2.09,0,0,1-1.33.46c-.57,0-1.14,0-1.7-.05-6.06-.32-12.11-.68-18.17-1-5.75-.28-11.51-.15-17.26.12-.48,0-1,0-1.44,0a1,1,0,0,1-.49-.14.62.62,0,0,1-.25-.42.52.52,0,0,1,.2-.43,2.85,2.85,0,0,1,.85-.29c1-.17,2-.32,3-.45A106.93,106.93,0,0,1,59.31,144c3.58.12,7.15.3,10.72.44a48.56,48.56,0,0,0,6.15-.11A12.34,12.34,0,0,1,77.44,144.38Z"/>
          <path class="d" d="M76.66,134.83a2.22,2.22,0,0,1-.6.45,4,4,0,0,1-1.15.22c-1,.05-1.92.08-2.88.06-5-.09-9.94-.21-14.91-.29-5.85-.09-11.69.16-17.53.51q-1.44.09-2.88.12a2.41,2.41,0,0,1-.89-.14.7.7,0,0,1-.33-.49.52.52,0,0,1,.24-.42,2.15,2.15,0,0,1,.73-.27c.77-.15,1.54-.28,2.32-.4a119.5,119.5,0,0,1,20.62-1.26c4.66.09,9.33.26,14,.41.79,0,1.57.12,2.35.19a2,2,0,0,1,.63.16A.85.85,0,0,1,76.66,134.83Z"/>
          <path class="d" d="M74.55,127.19a4.21,4.21,0,0,1,.47.32.51.51,0,0,1,0,.71,1.79,1.79,0,0,1-.67.38,7,7,0,0,1-1.29.14c-3.49.1-7,.2-10.47.25-7.25.11-14.49.4-21.72.93-.91.07-1.82.12-2.74.15a5,5,0,0,1-1.16-.13.7.7,0,0,1-.56-.65.67.67,0,0,1,.5-.68,6,6,0,0,1,1-.23c2.68-.36,5.36-.79,8-1.06a159.68,159.68,0,0,1,24.45-.53c1,0,2,.14,3,.23C73.81,127.05,74.2,127.13,74.55,127.19Z"/>
        </g>
        <g>
          <path class="d" d="M104.08,97.82c.35.49.5.84.31,1.25a1,1,0,0,1-1.07.59,3.28,3.28,0,0,1-1.23-.39,20.28,20.28,0,0,1-1.75-1.15c-6-4.16-12-8.35-18.11-12.48-2.6-1.76-5.28-3.4-7.93-5.1-.51-.33-1-.65-1.53-1a3.24,3.24,0,0,1-.65-.63.75.75,0,0,1-.05-.87.73.73,0,0,1,.79-.35,4.27,4.27,0,0,1,1,.33c1.21.6,2.43,1.19,3.62,1.82a128.5,128.5,0,0,1,12.45,7.73c3.52,2.44,7,5,10.45,7.44.93.66,1.85,1.31,2.76,2C103.52,97.29,103.86,97.63,104.08,97.82Z"/>
          <path class="d" d="M103.53,104.64a1.5,1.5,0,0,1,.31,1.51,1.32,1.32,0,0,1-1.21.85,2.08,2.08,0,0,1-1.37-.37c-.47-.32-.92-.66-1.37-1-4.81-3.7-9.59-7.42-14.42-11.09-4.58-3.49-9.4-6.65-14.3-9.68-.4-.25-.8-.52-1.19-.8a.92.92,0,0,1-.33-.4.61.61,0,0,1,0-.48.55.55,0,0,1,.41-.25,2.9,2.9,0,0,1,.87.25c.91.42,1.81.86,2.71,1.32a107.71,107.71,0,0,1,15.12,9.58c2.87,2.13,5.72,4.3,8.59,6.44a47.26,47.26,0,0,0,5.12,3.39A12.09,12.09,0,0,1,103.53,104.64Z"/>
          <path class="d" d="M108.3,96.33a2.51,2.51,0,0,1-.75,0,3.92,3.92,0,0,1-1.07-.47c-.82-.5-1.63-1-2.41-1.58-4-2.89-8.08-5.8-12.13-8.68-4.77-3.39-9.73-6.49-14.73-9.51-.83-.5-1.64-1-2.44-1.54a2.27,2.27,0,0,1-.66-.61.74.74,0,0,1,0-.6.54.54,0,0,1,.43-.21,2.5,2.5,0,0,1,.76.19c.72.32,1.43.65,2.14,1A120.65,120.65,0,0,1,95.15,85c3.8,2.73,7.54,5.51,11.3,8.28.63.46,1.23,1,1.83,1.48a1.64,1.64,0,0,1,.42.49A.82.82,0,0,1,108.3,96.33Z"/>
          <path class="d" d="M110.89,88.83a4.66,4.66,0,0,1,.2.54.53.53,0,0,1-.41.58,1.93,1.93,0,0,1-.76-.07,7,7,0,0,1-1.15-.61c-2.93-1.9-5.87-3.79-8.77-5.73-6-4-12.17-7.87-18.42-11.53-.79-.46-1.58-.94-2.35-1.43a5,5,0,0,1-.88-.77.69.69,0,0,1-.1-.85.68.68,0,0,1,.8-.28,7.55,7.55,0,0,1,1,.39c2.42,1.22,4.87,2.38,7.24,3.69a159.59,159.59,0,0,1,20.45,13.41c.8.61,1.57,1.25,2.35,1.89C110.36,88.31,110.63,88.59,110.89,88.83Z"/>
        </g>
        <g>
          <path class="d" d="M148.08,141.89c.35.48.5.84.3,1.24a1,1,0,0,1-1.07.6,3.76,3.76,0,0,1-1.23-.39c-.61-.34-1.17-.76-1.75-1.15-6-4.16-12.05-8.35-18.11-12.48-2.59-1.77-5.28-3.41-7.92-5.1-.51-.33-1-.66-1.53-1a2.78,2.78,0,0,1-.65-.63.74.74,0,0,1-.05-.86.71.71,0,0,1,.78-.35,4.27,4.27,0,0,1,1,.33c1.22.59,2.43,1.18,3.63,1.82a127.76,127.76,0,0,1,12.45,7.73c3.51,2.43,7,5,10.45,7.44.92.66,1.85,1.31,2.76,2C147.51,141.35,147.85,141.69,148.08,141.89Z"/>
          <path class="d" d="M147.53,148.71a1.49,1.49,0,0,1,.31,1.5,1.36,1.36,0,0,1-1.22.86,2.06,2.06,0,0,1-1.36-.38c-.47-.31-.92-.65-1.37-1-4.81-3.7-9.6-7.42-14.42-11.09-4.59-3.49-9.4-6.64-14.3-9.68-.41-.25-.81-.52-1.19-.8a.88.88,0,0,1-.33-.39.64.64,0,0,1,0-.49.53.53,0,0,1,.41-.24,3,3,0,0,1,.87.24c.9.43,1.81.87,2.7,1.32a107,107,0,0,1,15.13,9.59c2.87,2.13,5.72,4.29,8.58,6.43a47.47,47.47,0,0,0,5.13,3.4A11.48,11.48,0,0,1,147.53,148.71Z"/>
          <path class="d" d="M152.3,140.4a2.26,2.26,0,0,1-.75,0,3.83,3.83,0,0,1-1.08-.46c-.81-.51-1.62-1-2.4-1.58-4-2.89-8.08-5.81-12.14-8.69-4.76-3.39-9.72-6.49-14.73-9.51-.82-.49-1.63-1-2.43-1.53a2.3,2.3,0,0,1-.66-.62.71.71,0,0,1,0-.59.57.57,0,0,1,.44-.22,2.45,2.45,0,0,1,.75.2c.72.31,1.44.64,2.14,1A119.94,119.94,0,0,1,139.15,129c3.79,2.72,7.54,5.5,11.3,8.27.63.47,1.23,1,1.83,1.48a2.18,2.18,0,0,1,.42.49A.85.85,0,0,1,152.3,140.4Z"/>
          <path class="d" d="M154.89,132.9c.08.21.15.36.2.53a.52.52,0,0,1-.41.58,1.75,1.75,0,0,1-.76-.07,6.42,6.42,0,0,1-1.16-.61c-2.93-1.9-5.86-3.79-8.77-5.72q-9-6-18.42-11.54c-.79-.46-1.58-.93-2.34-1.43a5,5,0,0,1-.89-.76.7.7,0,0,1-.09-.86.67.67,0,0,1,.8-.27,5.78,5.78,0,0,1,1,.39c2.41,1.22,4.86,2.38,7.23,3.68a159,159,0,0,1,20.46,13.41c.79.62,1.57,1.26,2.34,1.89C154.35,132.37,154.63,132.65,154.89,132.9Z"/>
        </g>
        <g>
          <path class="d" d="M102.68,116.51c.35-.48.65-.73,1.09-.67a1,1,0,0,1,.89.84,3.29,3.29,0,0,1,0,1.29,20.13,20.13,0,0,1-.56,2c-2.14,7-4.32,14-6.42,21-.9,3-1.65,6.07-2.47,9.1-.16.59-.3,1.18-.49,1.76a3.12,3.12,0,0,1-.4.82.73.73,0,0,1-.81.3.71.71,0,0,1-.57-.64,4,4,0,0,1,0-1c.2-1.34.39-2.68.64-4a128.34,128.34,0,0,1,3.6-14.2c1.26-4.09,2.62-8.14,3.93-12.21.35-1.08.69-2.17,1.06-3.24C102.34,117.21,102.56,116.78,102.68,116.51Z"/>
          <path class="d" d="M109.35,115a1.49,1.49,0,0,1,1.34-.75,1.35,1.35,0,0,1,1.18.9,2.07,2.07,0,0,1,0,1.41c-.15.55-.34,1.08-.54,1.62-2.07,5.69-4.16,11.38-6.21,17.09-1.94,5.43-3.49,11-4.89,16.56-.12.46-.26.92-.41,1.38a.88.88,0,0,1-.27.43.68.68,0,0,1-.47.12.51.51,0,0,1-.36-.32,2.71,2.71,0,0,1,0-.9c.13-1,.27-2,.44-3a106.82,106.82,0,0,1,4.56-17.31c1.16-3.39,2.36-6.76,3.53-10.13a46.5,46.5,0,0,0,1.69-5.92A10.65,10.65,0,0,1,109.35,115Z"/>
          <path class="d" d="M100,112.94a2.32,2.32,0,0,1,.25.71,3.5,3.5,0,0,1-.12,1.16c-.23.93-.48,1.86-.78,2.77-1.52,4.74-3.08,9.46-4.6,14.19-1.79,5.57-3.25,11.24-4.61,16.92-.22.94-.47,1.87-.73,2.79a2.24,2.24,0,0,1-.38.81.72.72,0,0,1-.57.18.56.56,0,0,1-.34-.36,2.2,2.2,0,0,1,0-.77c.08-.78.18-1.56.29-2.34a120.33,120.33,0,0,1,4.78-20.09c1.45-4.44,3-8.86,4.47-13.28.25-.74.56-1.46.86-2.19a2.1,2.1,0,0,1,.34-.55A.83.83,0,0,1,100,112.94Z"/>
          <path class="d" d="M92.05,112.74a5.12,5.12,0,0,1,.45-.35.52.52,0,0,1,.68.21,1.81,1.81,0,0,1,.16.75,7,7,0,0,1-.23,1.28c-.93,3.37-1.84,6.74-2.81,10.09-2,7-3.83,14-5.42,21.05-.2.89-.41,1.79-.66,2.67a4.8,4.8,0,0,1-.46,1.07.69.69,0,0,1-.78.35.68.68,0,0,1-.51-.68,7.17,7.17,0,0,1,.08-1c.43-2.67.8-5.36,1.32-8a160.1,160.1,0,0,1,6.6-23.55c.35-1,.72-1.88,1.1-2.81C91.71,113.41,91.9,113.06,92.05,112.74Z"/>
        </g>
        <g>
          <path class="d" d="M36.28,46.84c.36-.48.65-.72,1.1-.66a1,1,0,0,1,.89.84,3.5,3.5,0,0,1,0,1.29,20,20,0,0,1-.56,2c-2.14,7-4.32,14-6.42,21-.9,3-1.65,6.06-2.46,9.09-.16.59-.31,1.19-.5,1.77a3.06,3.06,0,0,1-.4.81.73.73,0,0,1-.81.3.7.7,0,0,1-.57-.64,4,4,0,0,1,0-1c.2-1.34.4-2.67.64-4a127.94,127.94,0,0,1,3.6-14.21c1.26-4.09,2.62-8.14,3.93-12.21.35-1.08.69-2.16,1.06-3.23C35.94,47.54,36.16,47.12,36.28,46.84Z"/>
          <path class="d" d="M43,45.31a1.49,1.49,0,0,1,1.34-.76,1.35,1.35,0,0,1,1.18.9,2,2,0,0,1,.05,1.42c-.15.54-.34,1.08-.53,1.61-2.07,5.7-4.17,11.39-6.21,17.1-1.94,5.42-3.49,11-4.9,16.55-.12.47-.26.93-.41,1.38a.84.84,0,0,1-.27.43.58.58,0,0,1-.47.12.55.55,0,0,1-.36-.32,2.71,2.71,0,0,1,0-.9c.13-1,.28-2,.44-3a106.66,106.66,0,0,1,4.56-17.32c1.16-3.38,2.36-6.75,3.54-10.13a46.79,46.79,0,0,0,1.68-5.91A9.45,9.45,0,0,1,43,45.31Z"/>
          <path class="d" d="M33.58,43.27a2.43,2.43,0,0,1,.25.71,3.85,3.85,0,0,1-.11,1.17c-.24.93-.49,1.85-.78,2.77-1.53,4.73-3.09,9.45-4.61,14.19C26.54,67.68,25.08,73.34,23.72,79c-.22.93-.46,1.86-.72,2.78a2.39,2.39,0,0,1-.39.82.74.74,0,0,1-.57.17c-.13,0-.3-.21-.34-.35a2.27,2.27,0,0,1,0-.78c.08-.78.18-1.56.29-2.33a120.44,120.44,0,0,1,4.78-20.1c1.45-4.44,3-8.85,4.47-13.27.25-.74.56-1.47.86-2.19a1.82,1.82,0,0,1,.34-.55A.84.84,0,0,1,33.58,43.27Z"/>
          <path class="d" d="M25.65,43.07a5.12,5.12,0,0,1,.45-.35.54.54,0,0,1,.68.21,1.84,1.84,0,0,1,.16.75A7.12,7.12,0,0,1,26.71,45c-.93,3.36-1.84,6.73-2.8,10.09q-3,10.44-5.43,21c-.2.9-.41,1.79-.65,2.67a6,6,0,0,1-.46,1.08.7.7,0,0,1-.79.34.67.67,0,0,1-.5-.68,5.27,5.27,0,0,1,.08-1c.43-2.67.79-5.35,1.32-8a158.87,158.87,0,0,1,6.6-23.55c.34-.94.71-1.88,1.09-2.81C25.31,43.74,25.5,43.4,25.65,43.07Z"/>
        </g>
        <g>
          <path class="d" d="M153,100.22c.55.23.86.46.91.9a1,1,0,0,1-.6,1.07,3.69,3.69,0,0,1-1.26.3c-.69,0-1.39,0-2.09-.07-7.32-.42-14.64-.88-22-1.25-3.13-.17-6.28-.17-9.42-.25-.61,0-1.22,0-1.83-.06a3.22,3.22,0,0,1-.88-.2.74.74,0,0,1-.49-.71.71.71,0,0,1,.49-.71,3.9,3.9,0,0,1,1-.23c1.35-.13,2.7-.25,4-.33a127.87,127.87,0,0,1,14.65.14c4.27.25,8.53.61,12.79.92,1.14.09,2.27.16,3.4.27C152.22,100.05,152.69,100.17,153,100.22Z"/>
          <path class="d" d="M156.06,106.33a1.52,1.52,0,0,1,1.05,1.12,1.37,1.37,0,0,1-.6,1.37,2.06,2.06,0,0,1-1.36.38c-.57,0-1.13-.08-1.69-.14-6-.66-12.05-1.35-18.08-2-5.74-.6-11.49-.8-17.25-.84-.48,0-1,0-1.44-.07a.89.89,0,0,1-.48-.16.66.66,0,0,1-.23-.43.56.56,0,0,1,.23-.43,2.9,2.9,0,0,1,.86-.24c1-.11,2-.2,3-.28A108.2,108.2,0,0,1,138,105c3.56.33,7.11.7,10.68,1a46.57,46.57,0,0,0,6.14.24C155.27,106.23,155.75,106.31,156.06,106.33Z"/>
          <path class="d" d="M155.81,96.75a2,2,0,0,1-.62.41,3.54,3.54,0,0,1-1.16.16c-1,0-1.92,0-2.88-.1-5-.36-9.92-.76-14.88-1.12-5.83-.41-11.68-.49-17.53-.47-1,0-1.92,0-2.88,0a2.43,2.43,0,0,1-.88-.18.75.75,0,0,1-.3-.52.54.54,0,0,1,.26-.41,2.43,2.43,0,0,1,.74-.22q1.17-.17,2.34-.27a119.79,119.79,0,0,1,20.66-.11c4.65.35,9.3.78,13.95,1.2.78.06,1.56.19,2.34.31a2.18,2.18,0,0,1,.61.2A.83.83,0,0,1,155.81,96.75Z"/>
          <path class="d" d="M154.13,89a5.12,5.12,0,0,1,.45.35.53.53,0,0,1,0,.71,2,2,0,0,1-.69.34,6.36,6.36,0,0,1-1.31.07c-3.49-.1-7-.19-10.47-.33-7.24-.3-14.48-.41-21.73-.29-.91,0-1.83,0-2.75,0a5.14,5.14,0,0,1-1.15-.2.69.69,0,0,1-.52-.68.68.68,0,0,1,.54-.65,7.14,7.14,0,0,1,1-.17c2.7-.21,5.39-.49,8.09-.61a159.76,159.76,0,0,1,24.45.84c1,.11,2,.25,3,.39C153.4,88.83,153.78,88.93,154.13,89Z"/>
        </g>
        <g>
          <path class="d" d="M54.56,114.42c-.23.55-.46.86-.91.9a1,1,0,0,1-1.06-.6,3.42,3.42,0,0,1-.3-1.26c0-.69,0-1.39.07-2.09.42-7.31.87-14.63,1.25-22,.17-3.14.17-6.28.25-9.42,0-.61,0-1.23.06-1.83a3,3,0,0,1,.2-.89.74.74,0,0,1,.71-.49.72.72,0,0,1,.71.49,4,4,0,0,1,.23,1c.13,1.34.25,2.69.33,4A127.85,127.85,0,0,1,56,97c-.25,4.27-.61,8.53-.93,12.8-.08,1.13-.15,2.26-.26,3.39C54.73,113.66,54.61,114.12,54.56,114.42Z"/>
          <path class="d" d="M48.45,117.49c-.28.63-.61,1-1.13,1.05a1.35,1.35,0,0,1-1.36-.6,2.06,2.06,0,0,1-.38-1.36c0-.56.07-1.13.14-1.69.66-6,1.35-12,2-18.08.6-5.73.8-11.49.84-17.25,0-.48,0-1,.07-1.43a.92.92,0,0,1,.16-.49.64.64,0,0,1,.43-.22.55.55,0,0,1,.43.22,3.21,3.21,0,0,1,.24.87c.11,1,.2,2,.28,3a107,107,0,0,1-.34,17.9c-.32,3.56-.7,7.12-1,10.68a45,45,0,0,0-.24,6.14C48.55,116.7,48.47,117.18,48.45,117.49Z"/>
          <path class="d" d="M58,117.25a2.36,2.36,0,0,1-.4-.63,3.79,3.79,0,0,1-.17-1.16c0-1,0-1.92.11-2.88.36-5,.76-9.91,1.11-14.87.42-5.84.5-11.69.47-17.53,0-1,0-1.92,0-2.88a2.44,2.44,0,0,1,.18-.89.78.78,0,0,1,.52-.3.54.54,0,0,1,.4.27,2.28,2.28,0,0,1,.23.74c.1.78.2,1.56.27,2.34a119.67,119.67,0,0,1,.11,20.65c-.35,4.66-.79,9.31-1.2,14-.07.78-.2,1.55-.31,2.33a2.08,2.08,0,0,1-.2.61A.85.85,0,0,1,58,117.25Z"/>
          <path class="d" d="M65.78,115.57c-.14.17-.23.32-.35.44a.52.52,0,0,1-.71,0,1.78,1.78,0,0,1-.34-.69,6.3,6.3,0,0,1-.07-1.3c.1-3.49.19-7,.33-10.47.3-7.24.41-14.49.29-21.73,0-.92,0-1.84,0-2.75a4.47,4.47,0,0,1,.2-1.15.68.68,0,0,1,1.33,0,7.37,7.37,0,0,1,.17,1c.21,2.7.49,5.4.61,8.1a159.76,159.76,0,0,1-.84,24.45c-.11,1-.25,2-.39,3C66,114.84,65.85,115.22,65.78,115.57Z"/>
        </g>
        <g>
          <path class="d" d="M111.23,39.79c-.2-.56-.41-.88-.85-1a1,1,0,0,0-1.1.55,3.56,3.56,0,0,0-.37,1.24,20.76,20.76,0,0,0,0,2.09c0,7.33.06,14.66,0,22,0,3.14-.18,6.28-.28,9.42,0,.61,0,1.22,0,1.83a3.09,3.09,0,0,0,.15.9.73.73,0,0,0,.68.52.72.72,0,0,0,.74-.45,4.79,4.79,0,0,0,.29-1c.2-1.33.4-2.67.55-4a127.71,127.71,0,0,0,.68-14.63c0-4.28-.14-8.56-.21-12.83,0-1.13,0-2.27-.08-3.4C111.35,40.56,111.27,40.09,111.23,39.79Z"/>
          <path class="d" d="M105.3,36.38c-.24-.64-.55-1-1.06-1.11a1.37,1.37,0,0,0-1.4.52,2.1,2.1,0,0,0-.46,1.34c0,.56,0,1.13.05,1.7.32,6.05.68,12.1,1,18.16.28,5.75.15,11.51-.12,17.26,0,.48,0,1,0,1.44a1,1,0,0,0,.14.49.63.63,0,0,0,.42.26.59.59,0,0,0,.43-.2,2.91,2.91,0,0,0,.29-.86q.25-1.48.45-3a108.17,108.17,0,0,0,.67-17.9c-.13-3.57-.31-7.15-.44-10.72a46.76,46.76,0,0,1,.1-6.15A12.34,12.34,0,0,0,105.3,36.38Z"/>
          <path class="d" d="M114.85,37.16a2.39,2.39,0,0,0-.45.6,4,4,0,0,0-.22,1.15c-.05,1-.08,1.92-.06,2.88.09,5,.21,9.94.29,14.92.09,5.85-.16,11.69-.51,17.52q-.09,1.44-.12,2.88a2.41,2.41,0,0,0,.14.89.7.7,0,0,0,.49.33.49.49,0,0,0,.42-.24,2,2,0,0,0,.27-.73c.15-.77.28-1.54.4-2.32a119.45,119.45,0,0,0,1.26-20.61c-.09-4.67-.26-9.34-.41-14,0-.79-.12-1.57-.19-2.35a1.89,1.89,0,0,0-.16-.62A.84.84,0,0,0,114.85,37.16Z"/>
          <path class="d" d="M122.5,39.27c-.13-.18-.22-.34-.33-.47a.53.53,0,0,0-.71,0,1.71,1.71,0,0,0-.37.67,6.23,6.23,0,0,0-.15,1.29c-.1,3.49-.2,7-.25,10.47-.11,7.25-.4,14.49-.93,21.72-.07.91-.12,1.83-.15,2.74a5,5,0,0,0,.13,1.16.69.69,0,0,0,.65.56.66.66,0,0,0,.68-.5,5.8,5.8,0,0,0,.23-1c.36-2.68.79-5.35,1.06-8.05a158.41,158.41,0,0,0,.53-24.45c0-1-.14-2-.23-3C122.63,40,122.55,39.62,122.5,39.27Z"/>
        </g>
        <g>
          <path class="d" d="M19.13,123.7c-.17-.48-.35-.75-.73-.81a.83.83,0,0,0-.93.46,2.89,2.89,0,0,0-.32,1.06,17.49,17.49,0,0,0,0,1.78c0,6.24.05,12.48,0,18.72,0,2.68-.15,5.35-.24,8,0,.52,0,1,0,1.56a2.82,2.82,0,0,0,.13.77.62.62,0,0,0,.58.44.6.6,0,0,0,.63-.38,3.59,3.59,0,0,0,.24-.85c.17-1.14.34-2.28.47-3.42a105.92,105.92,0,0,0,.58-12.47c0-3.64-.12-7.28-.18-10.92,0-1,0-1.93-.06-2.9C19.23,124.36,19.16,124,19.13,123.7Z"/>
          <path class="d" d="M14.08,120.8c-.21-.55-.47-.85-.91-1a1.17,1.17,0,0,0-1.19.45,1.78,1.78,0,0,0-.39,1.13c0,.49,0,1,0,1.45.28,5.16.58,10.31.83,15.47.24,4.9.13,9.8-.1,14.7,0,.41,0,.82,0,1.22a.83.83,0,0,0,.12.42.56.56,0,0,0,.35.22.5.5,0,0,0,.38-.17,2.41,2.41,0,0,0,.24-.73c.14-.84.27-1.69.38-2.53a91.35,91.35,0,0,0,.57-15.24c-.11-3.05-.26-6.09-.38-9.13a41.47,41.47,0,0,1,.09-5.23A9.3,9.3,0,0,0,14.08,120.8Z"/>
          <path class="d" d="M22.21,121.46a1.75,1.75,0,0,0-.38.52,2.89,2.89,0,0,0-.19,1c0,.82-.07,1.64-.05,2.45.07,4.24.17,8.47.24,12.71.08,5-.14,9.95-.43,14.92,0,.82-.08,1.63-.1,2.45a1.92,1.92,0,0,0,.11.76.62.62,0,0,0,.43.28.46.46,0,0,0,.36-.2,2,2,0,0,0,.22-.62c.13-.66.24-1.32.34-2a102.11,102.11,0,0,0,1.08-17.55c-.08-4-.23-7.95-.36-11.92,0-.67-.09-1.34-.16-2a1.39,1.39,0,0,0-.14-.53A.7.7,0,0,0,22.21,121.46Z"/>
          <path class="d" d="M28.72,123.26a3.86,3.86,0,0,0-.28-.4.43.43,0,0,0-.6,0,1.35,1.35,0,0,0-.32.57,5.8,5.8,0,0,0-.13,1.1c-.08,3-.17,5.94-.21,8.92-.09,6.17-.34,12.33-.79,18.49-.06.77-.11,1.55-.13,2.33a4.69,4.69,0,0,0,.11,1,.6.6,0,0,0,.56.48.59.59,0,0,0,.58-.43,5,5,0,0,0,.19-.87c.31-2.28.68-4.56.91-6.85a137.85,137.85,0,0,0,.45-20.82c0-.86-.13-1.71-.2-2.56C28.83,123.89,28.76,123.56,28.72,123.26Z"/>
        </g>
        <g>
          <path class="d" d="M52.75,4.51c-.18-.51-.37-.8-.77-.87a.9.9,0,0,0-1,.49,3.21,3.21,0,0,0-.33,1.12,17,17,0,0,0,0,1.89c0,6.61.05,13.21,0,19.82,0,2.84-.16,5.67-.25,8.5,0,.55,0,1.1,0,1.65a2.81,2.81,0,0,0,.14.81.69.69,0,0,0,1.28.07,4.19,4.19,0,0,0,.26-.9c.18-1.21.36-2.42.49-3.63a114,114,0,0,0,.62-13.2c0-3.85-.13-7.71-.19-11.56,0-1,0-2-.07-3.07C52.86,5.2,52.78,4.77,52.75,4.51Z"/>
          <path class="d" d="M47.4,1.43c-.22-.58-.49-.9-1-1A1.21,1.21,0,0,0,45.19.9a1.87,1.87,0,0,0-.42,1.2c0,.51,0,1,0,1.54.3,5.45.62,10.91.88,16.37.25,5.19.14,10.38-.11,15.57,0,.43,0,.87,0,1.3a.83.83,0,0,0,.12.44.61.61,0,0,0,.38.23.5.5,0,0,0,.39-.18,2.42,2.42,0,0,0,.26-.77c.15-.89.28-1.79.4-2.69a95.55,95.55,0,0,0,.6-16.13c-.11-3.22-.27-6.45-.39-9.67a42.69,42.69,0,0,1,.09-5.54A8.17,8.17,0,0,0,47.4,1.43Z"/>
          <path class="d" d="M56,2.13a2.17,2.17,0,0,0-.4.55,3.55,3.55,0,0,0-.2,1c0,.87-.07,1.73,0,2.6.08,4.48.18,9,.26,13.45.08,5.27-.15,10.54-.46,15.8,0,.87-.09,1.73-.11,2.6a2.13,2.13,0,0,0,.12.8.67.67,0,0,0,.45.3A.48.48,0,0,0,56,39a1.89,1.89,0,0,0,.24-.65q.21-1.05.36-2.1A108,108,0,0,0,57.74,17.7c-.08-4.21-.24-8.41-.38-12.62,0-.71-.1-1.41-.16-2.12a1.79,1.79,0,0,0-.15-.56A.76.76,0,0,0,56,2.13Z"/>
          <path class="d" d="M62.91,4a3.34,3.34,0,0,0-.29-.42.49.49,0,0,0-.65,0,1.69,1.69,0,0,0-.33.6,5.76,5.76,0,0,0-.14,1.17c-.08,3.15-.18,6.3-.22,9.44-.1,6.54-.36,13.06-.84,19.58-.06.83-.11,1.65-.13,2.48a4.05,4.05,0,0,0,.12,1,.62.62,0,0,0,1.2.06,5.8,5.8,0,0,0,.2-.92c.33-2.42.72-4.83,1-7.26a143.68,143.68,0,0,0,.48-22c-.05-.9-.13-1.81-.21-2.71C63,4.7,63,4.35,62.91,4Z"/>
        </g>
        <g>
          <path class="d" d="M11.32,10.76c-.49-.11-.82-.1-1.07.18a.85.85,0,0,0-.11,1,3.19,3.19,0,0,0,.72.83c.47.36,1,.67,1.49,1,5.29,3.32,10.59,6.61,15.86,10,2.26,1.44,4.45,3,6.67,4.48.43.29.85.59,1.3.85a2.11,2.11,0,0,0,.71.3.62.62,0,0,0,.69-.25.6.6,0,0,0,0-.73,3.71,3.71,0,0,0-.59-.66c-.87-.75-1.75-1.51-2.65-2.22a107.64,107.64,0,0,0-10.24-7.13c-3.09-1.93-6.22-3.78-9.34-5.66-.83-.5-1.65-1-2.49-1.49A10.17,10.17,0,0,0,11.32,10.76Z"/>
          <path class="d" d="M6.18,13.49a1.32,1.32,0,0,0-1.29.26A1.2,1.2,0,0,0,4.63,15a1.79,1.79,0,0,0,.76.93c.4.27.82.51,1.24.74,4.52,2.51,9,5,13.54,7.53,4.27,2.41,8.36,5.11,12.39,7.92a11.23,11.23,0,0,0,1,.66.71.71,0,0,0,.41.13.56.56,0,0,0,.37-.19.45.45,0,0,0,.06-.4,2.58,2.58,0,0,0-.49-.6c-.64-.57-1.28-1.12-1.94-1.67a90.61,90.61,0,0,0-12.6-8.59c-2.63-1.53-5.28-3-7.92-4.55a39.8,39.8,0,0,1-4.39-2.86C6.77,13.81,6.4,13.63,6.18,13.49Z"/>
          <path class="d" d="M11.06,7a2.07,2.07,0,0,0,.24.6,3.16,3.16,0,0,0,.73.68q1,.71,2,1.35C17.7,11.78,21.33,14,25,16.14c4.26,2.59,8.36,5.42,12.41,8.32.66.47,1.34.94,2,1.39a1.88,1.88,0,0,0,.7.3.61.61,0,0,0,.46-.2.44.44,0,0,0,0-.42,1.81,1.81,0,0,0-.4-.52c-.49-.46-1-.9-1.49-1.34A102.9,102.9,0,0,0,24.38,13.41c-3.41-2.05-6.85-4-10.28-6-.58-.34-1.18-.63-1.78-.93a1.38,1.38,0,0,0-.52-.17C11.46,6.23,11.14,6.5,11.06,7Z"/>
          <path class="d" d="M16.05,2.41c-.18,0-.33,0-.48,0a.45.45,0,0,0-.32.52,1.68,1.68,0,0,0,.32.57,5.2,5.2,0,0,0,.86.69c2.48,1.65,4.94,3.31,7.44,4.93C29,12.51,34.13,16,39.1,19.65c.62.47,1.26.92,1.91,1.36a4.06,4.06,0,0,0,.89.43.6.6,0,0,0,.7-.21.58.58,0,0,0-.05-.72,5.43,5.43,0,0,0-.64-.63c-1.76-1.48-3.5-3-5.31-4.41A135.74,135.74,0,0,0,19.21,4c-.75-.41-1.51-.8-2.27-1.19C16.65,2.65,16.33,2.53,16.05,2.41Z"/>
        </g>
        <g>
          <path class="d" d="M130.75,10c-.48-.35-.84-.49-1.24-.3a1,1,0,0,0-.6,1.07A3.76,3.76,0,0,0,129.3,12c.34.61.76,1.18,1.15,1.75,4.16,6,8.35,12.05,12.48,18.11,1.77,2.59,3.41,5.28,5.1,7.92.33.51.66,1,1,1.53a2.82,2.82,0,0,0,.63.66.73.73,0,0,0,.86,0,.7.7,0,0,0,.35-.78,4.27,4.27,0,0,0-.33-1c-.59-1.22-1.18-2.43-1.82-3.63A127.76,127.76,0,0,0,141,24.11c-2.43-3.51-4.95-7-7.44-10.45-.66-.92-1.31-1.85-2-2.76C131.29,10.52,131,10.18,130.75,10Z"/>
          <path class="d" d="M123.93,10.51a1.47,1.47,0,0,0-1.5-.32,1.36,1.36,0,0,0-.86,1.22,2.06,2.06,0,0,0,.38,1.36c.31.47.65.93,1,1.38,3.7,4.8,7.42,9.59,11.09,14.41,3.49,4.59,6.64,9.4,9.68,14.3.25.41.52.81.8,1.2a.92.92,0,0,0,.39.32.64.64,0,0,0,.49,0,.53.53,0,0,0,.24-.41,2.9,2.9,0,0,0-.24-.86c-.43-.91-.87-1.82-1.32-2.71a107,107,0,0,0-9.59-15.13c-2.13-2.87-4.29-5.72-6.43-8.58a47.47,47.47,0,0,1-3.4-5.13A9.92,9.92,0,0,0,123.93,10.51Z"/>
          <path class="d" d="M132.24,5.74a2.24,2.24,0,0,0,0,.75,3.89,3.89,0,0,0,.46,1.07c.51.81,1,1.62,1.58,2.4,2.89,4,5.81,8.08,8.69,12.14,3.39,4.77,6.49,9.72,9.51,14.73.49.82,1,1.63,1.53,2.44a2.44,2.44,0,0,0,.62.66.76.76,0,0,0,.59,0,.56.56,0,0,0,.22-.44,2.53,2.53,0,0,0-.2-.75c-.31-.72-.64-1.43-1-2.14A119.94,119.94,0,0,0,143.6,18.88c-2.72-3.79-5.5-7.54-8.27-11.3-.47-.63-1-1.23-1.48-1.83a2.18,2.18,0,0,0-.49-.42A.85.85,0,0,0,132.24,5.74Z"/>
          <path class="d" d="M139.74,3.15c-.21-.08-.36-.16-.53-.21a.53.53,0,0,0-.58.41,1.8,1.8,0,0,0,.07.77,6.68,6.68,0,0,0,.61,1.15c1.9,2.93,3.79,5.86,5.72,8.77q6,9,11.54,18.42c.46.79.93,1.58,1.43,2.34a5,5,0,0,0,.76.89.7.7,0,0,0,.86.09.67.67,0,0,0,.27-.8,5.78,5.78,0,0,0-.39-1c-1.22-2.41-2.38-4.86-3.68-7.23A159.7,159.7,0,0,0,142.41,6.32q-.93-1.19-1.89-2.34C140.27,3.68,140,3.41,139.74,3.15Z"/>
        </g>
        <g>
          <path class="d" d="M106.53,11.78c.48-.36.73-.65.67-1.1a1,1,0,0,0-.84-.89,3.73,3.73,0,0,0-1.29,0,20,20,0,0,0-2,.57c-7,2.14-14,4.31-21,6.42-3,.9-6.06,1.64-9.09,2.46-.59.16-1.19.31-1.77.5a3.06,3.06,0,0,0-.81.4A.75.75,0,0,0,70,21a.72.72,0,0,0,.65.57,4,4,0,0,0,1,0c1.33-.19,2.67-.39,4-.63a128.55,128.55,0,0,0,14.21-3.61C94,16,98.08,14.65,102.15,13.33c1.08-.34,2.16-.69,3.23-1.05C105.83,12.12,106.26,11.9,106.53,11.78Z"/>
          <path class="d" d="M108.07,5.11a1.49,1.49,0,0,0,.76-1.34,1.35,1.35,0,0,0-.9-1.18,2.1,2.1,0,0,0-1.42-.06c-.54.16-1.08.35-1.61.54C99.2,5.14,93.51,7.24,87.8,9.28c-5.42,1.94-11,3.49-16.55,4.9-.47.12-.93.25-1.38.41a.84.84,0,0,0-.43.27.58.58,0,0,0-.12.47.54.54,0,0,0,.31.36,2.73,2.73,0,0,0,.9,0c1-.13,2-.28,3-.44a107.7,107.7,0,0,0,17.32-4.56C94.21,9.56,97.58,8.35,101,7.18a48.56,48.56,0,0,1,5.91-1.69A8.61,8.61,0,0,0,108.07,5.11Z"/>
          <path class="d" d="M110.1,14.47a2.27,2.27,0,0,0-.7-.24,3.85,3.85,0,0,0-1.17.11c-.93.24-1.86.49-2.77.78-4.73,1.53-9.45,3.09-14.19,4.61C85.7,21.52,80,23,74.35,24.34c-.93.22-1.86.46-2.78.72a2.22,2.22,0,0,0-.82.39.74.74,0,0,0-.17.57c0,.13.21.3.35.33a2.27,2.27,0,0,0,.78,0c.78-.08,1.56-.18,2.33-.29a119.72,119.72,0,0,0,20.1-4.79c4.44-1.44,8.85-3,13.27-4.46.74-.25,1.47-.56,2.19-.86a1.82,1.82,0,0,0,.55-.34A.84.84,0,0,0,110.1,14.47Z"/>
          <path class="d" d="M110.31,22.41c.13-.18.26-.31.35-.45a.54.54,0,0,0-.21-.68,1.84,1.84,0,0,0-.75-.16,7,7,0,0,0-1.29.23c-3.36.93-6.73,1.84-10.09,2.8q-10.44,3-21,5.43c-.9.2-1.79.41-2.67.65a4.68,4.68,0,0,0-1.08.46.7.7,0,0,0-.34.79.66.66,0,0,0,.67.5,6.19,6.19,0,0,0,1-.08c2.67-.43,5.35-.79,8-1.32A159,159,0,0,0,106.47,24c.94-.34,1.87-.71,2.81-1.09C109.64,22.75,110,22.56,110.31,22.41Z"/>
        </g>
        <g>
          <path class="d" d="M38.53,94.49c.48-.36.73-.65.66-1.1a1,1,0,0,0-.84-.89,3.73,3.73,0,0,0-1.29,0,20.78,20.78,0,0,0-2,.57c-7,2.14-14,4.31-21,6.42-3,.9-6.06,1.64-9.09,2.46-.59.16-1.18.31-1.76.5a3,3,0,0,0-.82.4.73.73,0,0,0-.3.81.7.7,0,0,0,.64.57,4,4,0,0,0,1,0c1.34-.19,2.68-.39,4-.63A128.38,128.38,0,0,0,21.93,100C26,98.72,30.07,97.36,34.14,96c1.08-.34,2.16-.69,3.24-1.06A12,12,0,0,0,38.53,94.49Z"/>
          <path class="d" d="M40.07,87.82a1.5,1.5,0,0,0,.75-1.34,1.35,1.35,0,0,0-.9-1.18,2.08,2.08,0,0,0-1.41-.06c-.55.16-1.08.35-1.62.54C31.19,87.85,25.51,90,19.8,92c-5.43,1.94-11,3.49-16.56,4.9-.47.12-.93.25-1.38.41a.88.88,0,0,0-.43.27.62.62,0,0,0-.12.47.55.55,0,0,0,.32.36,2.71,2.71,0,0,0,.9,0c1-.13,2-.28,3-.44a107.86,107.86,0,0,0,17.31-4.56c3.39-1.16,6.75-2.37,10.13-3.54a48.56,48.56,0,0,1,5.91-1.69A8.8,8.8,0,0,0,40.07,87.82Z"/>
          <path class="d" d="M42.1,97.18a2.75,2.75,0,0,0-.71-.25,4.13,4.13,0,0,0-1.16.12c-.93.24-1.86.49-2.77.78-4.74,1.53-9.46,3.09-14.2,4.61-5.57,1.79-11.23,3.24-16.91,4.61q-1.41.33-2.79.72a2.22,2.22,0,0,0-.82.39.74.74,0,0,0-.17.57.53.53,0,0,0,.35.33,2.27,2.27,0,0,0,.78,0c.78-.08,1.56-.18,2.34-.29A119.37,119.37,0,0,0,26.13,104c4.44-1.44,8.85-3,13.27-4.46.75-.25,1.47-.56,2.2-.86a2.1,2.1,0,0,0,.55-.34A.85.85,0,0,0,42.1,97.18Z"/>
          <path class="d" d="M42.3,105.11a5.13,5.13,0,0,0,.35-.44.53.53,0,0,0-.21-.68,1.81,1.81,0,0,0-.75-.16,6.14,6.14,0,0,0-1.28.23c-3.37.93-6.74,1.84-10.1,2.8q-10.44,3-21,5.42c-.9.21-1.79.42-2.67.66a4.8,4.8,0,0,0-1.07.46.69.69,0,0,0-.35.79.67.67,0,0,0,.68.5,6,6,0,0,0,1-.08c2.67-.43,5.36-.79,8-1.32a158.87,158.87,0,0,0,23.55-6.6c.95-.34,1.88-.71,2.81-1.09C41.63,105.46,42,105.27,42.3,105.11Z"/>
        </g>
        <g>
          <path class="d" d="M129.56,66.87c-.55.23-.87.46-.91.91a1,1,0,0,0,.6,1.06,3.64,3.64,0,0,0,1.26.31c.69,0,1.39,0,2.09-.07,7.32-.43,14.63-.88,22-1.26,3.14-.16,6.29-.17,9.43-.24.61,0,1.22,0,1.83-.07a2.89,2.89,0,0,0,.88-.2.73.73,0,0,0,.49-.71.72.72,0,0,0-.49-.71,4.35,4.35,0,0,0-1-.23c-1.35-.12-2.7-.25-4.05-.33a127.87,127.87,0,0,0-14.65.14c-4.27.25-8.53.61-12.8.93-1.13.08-2.26.16-3.39.26C130.32,66.71,129.85,66.82,129.56,66.87Z"/>
          <path class="d" d="M126.48,73a1.49,1.49,0,0,0-1,1.12,1.35,1.35,0,0,0,.6,1.36,2.07,2.07,0,0,0,1.36.39c.56,0,1.13-.08,1.69-.14,6-.67,12-1.36,18.08-2,5.73-.6,11.49-.79,17.25-.84.48,0,1,0,1.44-.07a.92.92,0,0,0,.48-.16.64.64,0,0,0,.23-.43.53.53,0,0,0-.23-.42,2.62,2.62,0,0,0-.87-.24c-1-.11-2-.21-3-.28a107.13,107.13,0,0,0-17.91.33c-3.56.33-7.12.7-10.68,1a48.35,48.35,0,0,1-6.14.24A8.62,8.62,0,0,0,126.48,73Z"/>
          <path class="d" d="M126.73,63.41a2.37,2.37,0,0,0,.62.41,4.16,4.16,0,0,0,1.16.16c1,0,1.92,0,2.88-.1,5-.37,9.92-.77,14.88-1.12,5.83-.42,11.68-.49,17.53-.47,1,0,1.92,0,2.87,0a2.25,2.25,0,0,0,.89-.18.73.73,0,0,0,.3-.51.52.52,0,0,0-.26-.41,2.45,2.45,0,0,0-.74-.23l-2.34-.27a119.79,119.79,0,0,0-20.66-.11c-4.65.36-9.3.79-14,1.2-.78.07-1.56.2-2.34.32a1.88,1.88,0,0,0-.61.19A.84.84,0,0,0,126.73,63.41Z"/>
          <path class="d" d="M128.41,55.65A5.12,5.12,0,0,0,128,56a.55.55,0,0,0,0,.72,1.91,1.91,0,0,0,.69.33,7.15,7.15,0,0,0,1.31.08c3.49-.11,7-.19,10.46-.34,7.25-.29,14.49-.41,21.74-.28.91,0,1.83,0,2.74,0a5.11,5.11,0,0,0,1.16-.19.71.71,0,0,0,.52-.68.67.67,0,0,0-.54-.65,5.27,5.27,0,0,0-1-.17c-2.7-.22-5.39-.5-8.09-.62a159.76,159.76,0,0,0-24.45.84c-1,.11-2,.25-3,.4C129.14,55.48,128.76,55.58,128.41,55.65Z"/>
        </g>
        <g>
          <path class="d" d="M-9.35,141.89c.35.48.5.84.3,1.24a1,1,0,0,1-1.07.6,3.76,3.76,0,0,1-1.23-.39c-.61-.34-1.17-.76-1.75-1.15-6-4.16-12-8.35-18.11-12.48-2.59-1.77-5.28-3.41-7.92-5.1-.51-.33-1-.66-1.53-1a3,3,0,0,1-.65-.63.74.74,0,0,1,0-.86.72.72,0,0,1,.79-.35,4.35,4.35,0,0,1,1,.33c1.22.59,2.44,1.18,3.63,1.82a126.57,126.57,0,0,1,12.45,7.73c3.51,2.43,7,5,10.45,7.44.92.66,1.85,1.31,2.76,2C-9.92,141.35-9.58,141.69-9.35,141.89Z"/>
          <path class="d" d="M-9.9,148.71a1.49,1.49,0,0,1,.31,1.5,1.36,1.36,0,0,1-1.22.86,2.08,2.08,0,0,1-1.36-.38c-.47-.31-.92-.65-1.37-1-4.81-3.7-9.6-7.42-14.42-11.09-4.59-3.49-9.4-6.64-14.3-9.68-.41-.25-.81-.52-1.19-.8a.88.88,0,0,1-.33-.39.64.64,0,0,1,0-.49.53.53,0,0,1,.41-.24,3,3,0,0,1,.87.24q1.36.65,2.7,1.32a107,107,0,0,1,15.13,9.59c2.87,2.13,5.72,4.29,8.58,6.43a48.47,48.47,0,0,0,5.13,3.4A10.19,10.19,0,0,1-9.9,148.71Z"/>
          <path class="d" d="M-5.13,140.4a2.26,2.26,0,0,1-.75,0A3.83,3.83,0,0,1-7,140c-.81-.51-1.62-1-2.4-1.58-4.05-2.89-8.08-5.81-12.13-8.69-4.77-3.39-9.73-6.49-14.74-9.51-.82-.49-1.63-1-2.43-1.53a2.3,2.3,0,0,1-.66-.62.68.68,0,0,1,0-.59.54.54,0,0,1,.43-.22,2.45,2.45,0,0,1,.75.2c.72.31,1.44.64,2.14,1A119.94,119.94,0,0,1-18.28,129c3.79,2.72,7.54,5.5,11.3,8.27.63.47,1.23,1,1.83,1.48a2.18,2.18,0,0,1,.42.49A.85.85,0,0,1-5.13,140.4Z"/>
          <path class="d" d="M-2.54,132.9c.08.21.15.36.2.53a.52.52,0,0,1-.41.58,1.76,1.76,0,0,1-.76-.07,6.77,6.77,0,0,1-1.16-.61c-2.92-1.9-5.86-3.79-8.77-5.72q-9-6-18.42-11.54c-.79-.46-1.57-.93-2.34-1.43a5,5,0,0,1-.89-.76.72.72,0,0,1-.09-.86.67.67,0,0,1,.8-.27,5.78,5.78,0,0,1,1,.39c2.41,1.22,4.86,2.38,7.23,3.68A159,159,0,0,1-5.72,130.23c.79.62,1.57,1.26,2.34,1.89C-3.08,132.37-2.8,132.65-2.54,132.9Z"/>
        </g>
        <g>
          <path class="d" d="M-4.45,100.22c.55.23.87.46.91.9a1,1,0,0,1-.6,1.07,3.63,3.63,0,0,1-1.26.3c-.69,0-1.39,0-2.09-.07-7.32-.42-14.63-.88-22-1.25-3.13-.17-6.28-.17-9.42-.25-.61,0-1.22,0-1.83-.06a3.22,3.22,0,0,1-.88-.2.74.74,0,0,1-.49-.71.71.71,0,0,1,.49-.71,3.9,3.9,0,0,1,1-.23c1.35-.13,2.7-.25,4-.33a127.87,127.87,0,0,1,14.65.14c4.27.25,8.53.61,12.79.92,1.14.09,2.27.16,3.4.27C-5.21,100.05-4.74,100.17-4.45,100.22Z"/>
          <path class="d" d="M-1.37,106.33a1.52,1.52,0,0,1,1.05,1.12,1.37,1.37,0,0,1-.6,1.37,2.06,2.06,0,0,1-1.36.38c-.56,0-1.13-.08-1.69-.14-6-.66-12-1.35-18.08-2-5.73-.6-11.49-.8-17.25-.84-.48,0-1,0-1.44-.07a.92.92,0,0,1-.48-.16.66.66,0,0,1-.23-.43.56.56,0,0,1,.23-.43,2.88,2.88,0,0,1,.87-.24c1-.11,2-.2,3-.28a108.2,108.2,0,0,1,17.91.33c3.56.33,7.12.7,10.68,1a46.57,46.57,0,0,0,6.14.24C-2.16,106.23-1.68,106.31-1.37,106.33Z"/>
          <path class="d" d="M-1.62,96.75a2,2,0,0,1-.62.41,3.54,3.54,0,0,1-1.16.16c-1,0-1.92,0-2.88-.1-5-.36-9.92-.76-14.88-1.12-5.83-.41-11.68-.49-17.53-.47-1,0-1.92,0-2.87,0a2.44,2.44,0,0,1-.89-.18.75.75,0,0,1-.3-.52.54.54,0,0,1,.26-.41,2.43,2.43,0,0,1,.74-.22q1.17-.17,2.34-.27a119.79,119.79,0,0,1,20.66-.11c4.65.35,9.3.78,14,1.2.78.06,1.56.19,2.34.31a2.18,2.18,0,0,1,.61.2A.83.83,0,0,1-1.62,96.75Z"/>
          <path class="d" d="M-3.3,89a5.12,5.12,0,0,1,.45.35.53.53,0,0,1,0,.71,1.93,1.93,0,0,1-.69.34,6.36,6.36,0,0,1-1.31.07c-3.49-.1-7-.19-10.46-.33-7.25-.3-14.49-.41-21.74-.29-.91,0-1.83,0-2.74,0a5.13,5.13,0,0,1-1.16-.2.69.69,0,0,1-.52-.68.68.68,0,0,1,.54-.65,7.37,7.37,0,0,1,1-.17c2.7-.21,5.39-.49,8.09-.61a159.76,159.76,0,0,1,24.45.84c1,.11,2,.25,3,.39C-4,88.83-3.65,88.93-3.3,89Z"/>
        </g>
        <g>
          <path class="d" d="M-26.68,10c-.48-.35-.84-.49-1.24-.3a1,1,0,0,0-.6,1.07,3.56,3.56,0,0,0,.4,1.23A20.18,20.18,0,0,0-27,13.7c4.16,6,8.35,12.05,12.48,18.11,1.77,2.59,3.41,5.28,5.1,7.92.33.51.66,1,1,1.53a3,3,0,0,0,.63.66.74.74,0,0,0,.86,0,.7.7,0,0,0,.35-.78,4.27,4.27,0,0,0-.33-1C-7.47,39-8.06,37.76-8.7,36.56a127.76,127.76,0,0,0-7.73-12.45c-2.43-3.51-4.95-7-7.44-10.45-.66-.92-1.31-1.85-2-2.76C-26.14,10.52-26.48,10.18-26.68,10Z"/>
          <path class="d" d="M-33.5,10.51a1.47,1.47,0,0,0-1.5-.32,1.36,1.36,0,0,0-.86,1.22,2.12,2.12,0,0,0,.38,1.36c.31.47.66.93,1,1.38,3.7,4.8,7.42,9.59,11.09,14.41,3.49,4.59,6.65,9.4,9.68,14.3.25.41.52.81.8,1.2a.92.92,0,0,0,.39.32.64.64,0,0,0,.49,0,.53.53,0,0,0,.24-.41,2.9,2.9,0,0,0-.24-.86c-.43-.91-.87-1.82-1.32-2.71a107,107,0,0,0-9.59-15.13c-2.12-2.87-4.29-5.72-6.43-8.58a47.47,47.47,0,0,1-3.4-5.13A9.92,9.92,0,0,0-33.5,10.51Z"/>
          <path class="d" d="M-25.19,5.74a2.24,2.24,0,0,0,0,.75,3.89,3.89,0,0,0,.46,1.07c.51.81,1,1.62,1.59,2.4,2.88,4,5.8,8.08,8.68,12.14C-11.09,26.87-8,31.82-5,36.83c.49.82,1,1.63,1.53,2.44a2.44,2.44,0,0,0,.62.66.76.76,0,0,0,.59,0A.56.56,0,0,0-2,39.48a2.26,2.26,0,0,0-.2-.75c-.31-.72-.64-1.43-1-2.14A119.94,119.94,0,0,0-13.83,18.88c-2.72-3.79-5.5-7.54-8.27-11.3-.47-.63-1-1.23-1.48-1.83a2.18,2.18,0,0,0-.49-.42A.85.85,0,0,0-25.19,5.74Z"/>
          <path class="d" d="M-17.69,3.15c-.21-.08-.36-.16-.53-.21a.53.53,0,0,0-.58.41,1.8,1.8,0,0,0,.07.77,6.68,6.68,0,0,0,.61,1.15c1.9,2.93,3.79,5.86,5.72,8.77q6,9,11.54,18.42C-.4,33.25.07,34,.57,34.8a5,5,0,0,0,.76.89.7.7,0,0,0,.86.09.67.67,0,0,0,.27-.8,5.78,5.78,0,0,0-.39-1C.85,31.6-.31,29.15-1.61,26.78A159.7,159.7,0,0,0-15,6.32Q-15.95,5.14-16.91,4C-17.16,3.68-17.44,3.41-17.69,3.15Z"/>
        </g>
        <g>
          <path class="d" d="M-27.87,66.87c-.55.23-.87.46-.91.91a1,1,0,0,0,.6,1.06,3.7,3.7,0,0,0,1.26.31c.69,0,1.39,0,2.09-.07,7.32-.43,14.64-.88,22-1.26,3.13-.16,6.28-.17,9.42-.24.61,0,1.22,0,1.83-.07a2.89,2.89,0,0,0,.88-.2.73.73,0,0,0,.49-.71.72.72,0,0,0-.49-.71,4.35,4.35,0,0,0-1-.23c-1.35-.12-2.7-.25-4-.33a127.87,127.87,0,0,0-14.65.14c-4.27.25-8.53.61-12.79.93-1.14.08-2.27.16-3.4.26C-27.11,66.71-27.58,66.82-27.87,66.87Z"/>
          <path class="d" d="M-30.95,73A1.49,1.49,0,0,0-32,74.11a1.36,1.36,0,0,0,.6,1.36,2.07,2.07,0,0,0,1.36.39c.57,0,1.13-.08,1.69-.14,6-.67,12.05-1.36,18.08-2,5.74-.6,11.49-.79,17.25-.84.48,0,1,0,1.44-.07a.89.89,0,0,0,.48-.16.64.64,0,0,0,.23-.43.53.53,0,0,0-.23-.42A2.63,2.63,0,0,0,8,71.57c-1-.11-2-.21-3-.28a107.13,107.13,0,0,0-17.91.33c-3.56.33-7.11.7-10.68,1a48.35,48.35,0,0,1-6.14.24A8.62,8.62,0,0,0-30.95,73Z"/>
          <path class="d" d="M-30.7,63.41a2.37,2.37,0,0,0,.62.41,4.16,4.16,0,0,0,1.16.16c1,0,1.92,0,2.88-.1,5-.37,9.92-.77,14.88-1.12,5.83-.42,11.68-.49,17.53-.47,1,0,1.92,0,2.88,0a2.23,2.23,0,0,0,.88-.18.73.73,0,0,0,.3-.51.52.52,0,0,0-.26-.41,2.45,2.45,0,0,0-.74-.23l-2.34-.27a119.79,119.79,0,0,0-20.66-.11c-4.65.36-9.3.79-13.95,1.2-.78.07-1.56.2-2.34.32a1.88,1.88,0,0,0-.61.19A.84.84,0,0,0-30.7,63.41Z"/>
          <path class="d" d="M-29,55.65a5.12,5.12,0,0,0-.45.35.55.55,0,0,0,0,.72,2,2,0,0,0,.69.33,7.15,7.15,0,0,0,1.31.08c3.49-.11,7-.19,10.47-.34,7.24-.29,14.48-.41,21.73-.28.91,0,1.83,0,2.75,0a5.12,5.12,0,0,0,1.15-.19.71.71,0,0,0,.52-.68A.67.67,0,0,0,8.65,55a5.15,5.15,0,0,0-1-.17c-2.7-.22-5.39-.5-8.09-.62A159.76,159.76,0,0,0-24.92,55c-1,.11-2,.25-3,.4C-28.29,55.48-28.67,55.58-29,55.65Z"/>
        </g>
        <g>
          <path class="d" d="M55.27,54.34c-.54.24-.85.48-.89.93a1,1,0,0,0,.63,1,3.61,3.61,0,0,0,1.26.28c.69,0,1.39-.06,2.09-.11,7.31-.55,14.61-1.13,21.93-1.64,3.13-.22,6.27-.28,9.41-.41.61,0,1.22,0,1.83-.1a3.23,3.23,0,0,0,.88-.21.74.74,0,0,0,.48-.73.7.7,0,0,0-.5-.69,4,4,0,0,0-1-.22c-1.35-.1-2.7-.2-4.05-.25a127.93,127.93,0,0,0-14.65.39c-4.26.33-8.52.77-12.78,1.16-1.12.1-2.26.2-3.38.32C56,54.16,55.57,54.29,55.27,54.34Z"/>
          <path class="d" d="M52.31,60.51c-.62.29-1,.62-1,1.14A1.35,1.35,0,0,0,51.9,63a2.1,2.1,0,0,0,1.37.37c.56,0,1.13-.1,1.69-.18,6-.76,12-1.56,18-2.3,5.72-.7,11.47-1,17.23-1.15q.72,0,1.44-.09a.87.87,0,0,0,.47-.17.66.66,0,0,0,.23-.43.56.56,0,0,0-.24-.42,2.61,2.61,0,0,0-.87-.23c-1-.09-2-.17-3-.23a108,108,0,0,0-17.89.65c-3.56.39-7.11.83-10.66,1.23a48.51,48.51,0,0,1-6.14.35A9.68,9.68,0,0,0,52.31,60.51Z"/>
          <path class="d" d="M52.38,50.93a2.44,2.44,0,0,0,.64.4,3.77,3.77,0,0,0,1.16.14c1,0,1.92-.07,2.87-.15,5-.46,9.91-.94,14.86-1.39,5.83-.52,11.67-.69,17.52-.78q1.44,0,2.88-.09a2.45,2.45,0,0,0,.88-.2.74.74,0,0,0,.29-.52.53.53,0,0,0-.27-.4,2.17,2.17,0,0,0-.75-.22c-.78-.09-1.56-.16-2.34-.23a120.81,120.81,0,0,0-20.66.26c-4.64.44-9.28,1-13.93,1.45-.78.08-1.55.22-2.32.35a2.1,2.1,0,0,0-.61.21A.84.84,0,0,0,52.38,50.93Z"/>
          <path class="d" d="M53.93,43.15a3.55,3.55,0,0,0-.44.36.53.53,0,0,0,0,.71,2,2,0,0,0,.7.32,7.07,7.07,0,0,0,1.3.05c3.49-.16,7-.31,10.46-.52,7.24-.42,14.48-.67,21.73-.67.91,0,1.83,0,2.74,0a5,5,0,0,0,1.15-.22.68.68,0,0,0,.51-.69.67.67,0,0,0-.55-.64,6.09,6.09,0,0,0-1-.15c-2.7-.17-5.4-.4-8.1-.47A159.57,159.57,0,0,0,58,42.45c-1,.13-2,.29-3,.45C54.65,43,54.28,43.07,53.93,43.15Z"/>
        </g>
        <g>
          <path class="d" d="M71.05,107.64a1,1,0,0,1,.84,1.06,1,1,0,1,1-.84-1.06Z"/>
          <path class="d" d="M89.5,107.57a1,1,0,0,1-1-1,.86.86,0,0,1,1-.81,1,1,0,0,1,1,1A.89.89,0,0,1,89.5,107.57Z"/>
          <path class="d" d="M111,107.57a1,1,0,0,1-1-1,.86.86,0,0,1,1-.81,1,1,0,0,1,1,1A.89.89,0,0,1,111,107.57Z"/>
          <path class="d" d="M76.38,120.3a1.15,1.15,0,0,1,.78.33.68.68,0,0,1-.09,1,1.3,1.3,0,0,1-1.6-.17.67.67,0,0,1,.08-1A1.17,1.17,0,0,1,76.38,120.3Z"/>
          <path class="d" d="M34.51,114.36a1.17,1.17,0,0,1,.79.33.69.69,0,0,1-.09,1,1.3,1.3,0,0,1-1.6-.17.67.67,0,0,1,.08-1A1.15,1.15,0,0,1,34.51,114.36Z"/>
          <path class="d" d="M43.9,71.66a.91.91,0,1,1-.22,1.81.92.92,0,0,1-.78-1A.91.91,0,0,1,43.9,71.66Z"/>
          <path class="d" d="M83.29,119.76a1.12,1.12,0,0,1-1-1.28.71.71,0,0,1,.89-.56,1.27,1.27,0,0,1,.89,1A.73.73,0,0,1,83.29,119.76Z"/>
          <path class="d" d="M23.75,33.7a.93.93,0,1,1-.23-1.33A.95.95,0,0,1,23.75,33.7Z"/>
          <path class="d" d="M151.18,119.36A.93.93,0,1,1,151,118,1,1,0,0,1,151.18,119.36Z"/>
          <path class="d" d="M15.14,50a1,1,0,0,1,1.36-.43.86.86,0,0,1,.26,1.24,1,1,0,0,1-1.36.43A.89.89,0,0,1,15.14,50Z"/>
          <path class="d" d="M10.08,32.44a1.17,1.17,0,0,1-.66.54.69.69,0,0,1-.88-.57,1.3,1.3,0,0,1,.9-1.33.66.66,0,0,1,.83.53A1.15,1.15,0,0,1,10.08,32.44Z"/>
          <path class="d" d="M7.3,38.8a1.12,1.12,0,0,1,1.59-.27.71.71,0,0,1,.08,1,1.28,1.28,0,0,1-1.3.32A.73.73,0,0,1,7.3,38.8Z"/>
          <path class="d" d="M72.82,98.73a.83.83,0,0,1-.94.74.82.82,0,0,1-.7-.89.83.83,0,0,1,.93-.74A.85.85,0,0,1,72.82,98.73Z"/>
          <path class="d" d="M55.34,67.43a.75.75,0,0,1,.72.79.82.82,0,0,1-.9.78.76.76,0,0,1-.73-.78A.84.84,0,0,1,55.34,67.43Z"/>
          <path class="d" d="M62,73.55a.76.76,0,0,1,.71.79.81.81,0,0,1-.93.73.77.77,0,0,1-.77-.82A.88.88,0,0,1,62,73.55Z"/>
          <path class="d" d="M82.18,100.67a.67.67,0,0,1,.67.71.71.71,0,0,1-.76.63.67.67,0,0,1-.67-.71A.71.71,0,0,1,82.18,100.67Z"/>
          <path class="d" d="M112.71,141.92a1,1,0,0,1-.72,1.23.86.86,0,0,1-1-.74,1,1,0,0,1,.72-1.23A.89.89,0,0,1,112.71,141.92Z"/>
          <path class="d" d="M128.29,151.49a1.17,1.17,0,0,1,.12-.84.68.68,0,0,1,1-.17,1.29,1.29,0,0,1,.23,1.59.67.67,0,0,1-1,.16A1.13,1.13,0,0,1,128.29,151.49Z"/>
          <path class="d" d="M126.06,144.92a1.12,1.12,0,0,1-1,1.27.71.71,0,0,1-.76-.72,1.27,1.27,0,0,1,.74-1.12A.74.74,0,0,1,126.06,144.92Z"/>
          <path class="d" d="M59.61,153.11a1.12,1.12,0,0,1-1,1.27.7.7,0,0,1-.76-.72,1.26,1.26,0,0,1,.74-1.11A.74.74,0,0,1,59.61,153.11Z"/>
          <path class="d" d="M44.68,149.15a1.11,1.11,0,0,1-1,1.27.71.71,0,0,1-.76-.72,1.28,1.28,0,0,1,.75-1.12A.73.73,0,0,1,44.68,149.15Z"/>
          <path class="d" d="M107.84,150.71a.66.66,0,0,1,.52-.82.7.7,0,0,1,.79.58.68.68,0,0,1-.52.83A.71.71,0,0,1,107.84,150.71Z"/>
          <path class="d" d="M113.47,27.86a.93.93,0,1,1-1.35,1.27.94.94,0,0,1,0-1.34A1,1,0,0,1,113.47,27.86Z"/>
          <path class="d" d="M95.37,68.39a.94.94,0,0,1-.06,1.34A1,1,0,0,1,94,68.31.94.94,0,0,1,95.37,68.39Z"/>
          <path class="d" d="M69.73,4a.94.94,0,0,1-.06,1.34A1,1,0,0,1,68.39,4,.94.94,0,0,1,69.73,4Z"/>
          <path class="d" d="M127.44,39.9a1,1,0,0,1-.11-1.43.87.87,0,0,1,1.27,0,1,1,0,0,1,.11,1.42A.89.89,0,0,1,127.44,39.9Z"/>
          <path class="d" d="M76.78,38.92a1,1,0,0,1-.11-1.43.86.86,0,0,1,1.26,0,1,1,0,0,1,.12,1.42A.88.88,0,0,1,76.78,38.92Z"/>
          <path class="d" d="M120.64,22.29a.82.82,0,1,1,0-1.13A.82.82,0,0,1,120.64,22.29Z"/>
          <path class="d" d="M139.24,83.07a.92.92,0,1,1-1.63.87.92.92,0,1,1,1.63-.87Z"/>
          <path class="d" d="M135.79,113a.94.94,0,0,1-.42,1.28,1,1,0,0,1-1.22-.41.93.93,0,1,1,1.64-.87Z"/>
          <path class="d" d="M147.63,79.59a.82.82,0,1,1,.35-1.08A.83.83,0,0,1,147.63,79.59Z"/>
          <path class="d" d="M126.44,29.89a.68.68,0,0,1,0,1,.71.71,0,0,1-1,0,.67.67,0,0,1,0-1A.72.72,0,0,1,126.44,29.89Z"/>
          <path class="d" d="M33.9,5.11a.67.67,0,0,1,0,1,.7.7,0,0,1-1,0,.68.68,0,0,1-.05-1A.72.72,0,0,1,33.9,5.11Z"/>
          <path class="d" d="M8.76,139.12A.93.93,0,1,1,8,137.43a.94.94,0,0,1,1.27.44A1,1,0,0,1,8.76,139.12Z"/>
          <path class="d" d="M8.59,152A.84.84,0,0,1,9,150.91a.82.82,0,0,1,1.06.41.83.83,0,0,1-.44,1.11A.84.84,0,0,1,8.59,152Z"/>
          <path class="d" d="M2.68,150.76a.66.66,0,0,1-.93-.27.69.69,0,0,1,.34-.93.66.66,0,0,1,.93.27A.71.71,0,0,1,2.68,150.76Z"/>
        </g>
        <rect class="a" width="157.43" height="157.43"/>
        <rect class="a" width="157.43" height="157.43"/>
      </g>
    </pattern>
  </defs>
  <title>Background_pattern_topics</title>
  <rect class="e" width="1280" height="800"/>
</svg>
