<svg width="33" height="33" xmlns="http://www.w3.org/2000/svg">

 <g>
  <title>background</title>
  <rect fill="none" id="canvas_background" height="35" width="35" y="-1" x="-1"/>
 </g>
 <g>
  <title>Layer 1</title>
  <g stroke="null" id="svg_1" transform="rotate(31 -142.80615234375,-62.61201477050783) ">
   <g stroke="null" id="svg_2">
    <path stroke-width="0" stroke="null" id="svg_3" d="m32.387842,-90.041015a5.4,5.4 0 0 0 -3,9.883l0,-1.555a4.2,4.2 0 1 1 6,0l0,1.555a5.4,5.4 0 0 0 -3,-9.883zm0,3.6a2.406,2.406 0 0 0 -2.4,2.4l0,8.253a3.294,3.294 0 0 0 -1.874,-1.883a2.571,2.571 0 0 0 -2.848,1.658a3.322,3.322 0 0 0 0.262,2.08a38.394,38.394 0 0 0 5.808,10.071a0.607,0.607 0 0 0 0.45,0.206l8.094,0a0.6,0.6 0 0 0 0.356,-0.122a7.535,7.535 0 0 0 2.136,-3.026a17.221,17.221 0 0 0 1.246,-4.272a10.08,10.08 0 0 0 -0.094,-4.066a2.891,2.891 0 0 0 -2.38,-2.3a4,4 0 0 0 -0.862,0.084a2,2 0 0 0 -0.637,-0.871a2.136,2.136 0 0 0 -1.274,-0.412a1.716,1.716 0 0 0 -0.965,0.337a1.982,1.982 0 0 0 -0.431,-0.525a2.179,2.179 0 0 0 -1.293,-0.412a2.351,2.351 0 0 0 -0.9,0.206l0,-5a2.363,2.363 0 0 0 -2.394,-2.409l0,0.003zm0,1.2a1.184,1.184 0 0 1 1.2,1.2l0,6.3a0.6,0.6 0 0 0 1.143,0.262a1.287,1.287 0 0 1 0.956,-0.562a1.155,1.155 0 0 1 0.59,0.188a0.735,0.735 0 0 1 0.309,0.712a0.6,0.6 0 0 0 1.134,0.271c0.244,-0.487 0.374,-0.566 0.675,-0.571a1.231,1.231 0 0 1 0.562,0.187a0.736,0.736 0 0 1 0.328,0.712a0.608,0.608 0 0 0 0.356,0.553a0.621,0.621 0 0 0 0.656,-0.112a1.509,1.509 0 0 1 0.74,-0.141c0.715,0.091 1.086,0.539 1.34,1.433a8.9,8.9 0 0 1 0.056,3.55a16.171,16.171 0 0 1 -1.152,3.972a7.056,7.056 0 0 1 -1.639,2.436l-7.56,0a38.141,38.141 0 0 1 -5.424,-9.509a2.3,2.3 0 0 1 -0.234,-1.33a1.314,1.314 0 0 1 1.377,-0.824c0.637,0.24 0.8,0.666 1.068,1.152l1.19,2.389a0.6,0.6 0 0 0 1.135,-0.28l0,-10.792a1.184,1.184 0 0 1 1.2,-1.2l-0.006,0.004z"/>
   </g>
  </g>
 </g>
</svg>