<svg xmlns="http://www.w3.org/2000/svg" width="33.43" height="33.35" viewBox="0 0 33.43 33.35">
  <title>plus</title>
  <g>
    <path d="M5.39,5.64a21.94,21.94,0,0,1,5.88-4.18C15.76-.75,20-.46,24.61,2.37a19.5,19.5,0,0,1,4.24,3.94c.47.53.92,1,1.34,1.46l.13.15c.21.32,5.14,7.76,2.14,14.55a18.55,18.55,0,0,1-8.35,9.09,16.69,16.69,0,0,1-12.79.95,16.35,16.35,0,0,1-9.68-8C-1.5,18.33-.06,11.09,5.39,5.64ZM28.7,9.11c-.43-.44-.88-.94-1.35-1.48a18.26,18.26,0,0,0-3.79-3.56c-4.07-2.5-7.48-2.74-11.41-.81A19.94,19.94,0,0,0,6.81,7.05C1.91,12,.65,18.14,3.43,23.6a14.28,14.28,0,0,0,8.5,7,14.7,14.7,0,0,0,11.26-.81,16.82,16.82,0,0,0,7.45-8.13C33,16.21,29.18,9.86,28.7,9.11Z"/>
    <path d="M6.87,16.59l.07-.06c.79-.66,2.5-.54,6.5-.08a31.26,31.26,0,0,0,3.21.28c.82,0,1.62,0,2.48.09a17,17,0,0,0,5.92-.33,1,1,0,0,1,.63,1.9,18.54,18.54,0,0,1-6.66.42c-.81,0-1.6-.08-2.34-.08a29.55,29.55,0,0,1-3.47-.29,26.87,26.87,0,0,0-5.07-.31,1,1,0,0,1-1.27-1.54Z"/>
    <path d="M16.19,7.56A1,1,0,0,1,17,7.27a1,1,0,0,1,.92,1.08,63.46,63.46,0,0,0,0,7.8A47.78,47.78,0,0,1,17.6,26.8a1,1,0,1,1-2-.37,47.15,47.15,0,0,0,.29-10.2,63.63,63.63,0,0,1,0-8A1,1,0,0,1,16.19,7.56Z"/>
  </g>
</svg>
